<?xml version="1.0" encoding="UTF-8" standalone="no"?>
<svg
   xmlns:dc="http://purl.org/dc/elements/1.1/"
   xmlns:cc="http://creativecommons.org/ns#"
   xmlns:rdf="http://www.w3.org/1999/02/22-rdf-syntax-ns#"
   xmlns:svg="http://www.w3.org/2000/svg"
   xmlns="http://www.w3.org/2000/svg"
   xmlns:sodipodi="http://sodipodi.sourceforge.net/DTD/sodipodi-0.dtd"
   xmlns:inkscape="http://www.inkscape.org/namespaces/inkscape"
   version="1.1"
   id="svg2"
   xml:space="preserve"
   width="100%"
   height="100%"
   viewBox="0 0 226.10933 164.85865"
   sodipodi:docname="RobotMaze.svg"
   preserveAspectRatio="xMidYMid meet"
   inkscape:version="1.0.1 (3bc2e813f5, 2020-09-07)"><metadata
     id="metadata8"><rdf:RDF><cc:Work
         rdf:about=""><dc:format>image/svg+xml</dc:format><dc:type
           rdf:resource="http://purl.org/dc/dcmitype/StillImage" /><dc:title></dc:title></cc:Work></rdf:RDF></metadata><defs
     id="defs6"><clipPath
       clipPathUnits="userSpaceOnUse"
       id="clipPath32"><path
         d="M 0,0 H 59.76 V 65.52 H 0 Z"
         id="path30" /></clipPath><clipPath
       clipPathUnits="userSpaceOnUse"
       id="clipPath40"><path
         d="M 0,65.52 H 59.76 V 0.03 H 0 Z"
         id="path38" /></clipPath><clipPath
       clipPathUnits="userSpaceOnUse"
       id="clipPath80"><path
         d="M 0,0 H 57.36 V 72.24 H 0 Z"
         id="path78" /></clipPath><clipPath
       clipPathUnits="userSpaceOnUse"
       id="clipPath124"><path
         d="M 0,0 H 36.3 V 36.3 H 0 Z"
         id="path122" /></clipPath><clipPath
       clipPathUnits="userSpaceOnUse"
       id="clipPath132"><path
         d="M 0.94971,36.15 H 35.35 c 0.442,0 0.8,-0.358 0.8,-0.799 V 0.9502 c 0,-0.4414 -0.358,-0.7998 -0.8,-0.7998 H 0.94971 C 0.5083,0.1504 0.1499,0.5088 0.1499,0.9502 V 35.351 c 0,0.441 0.3584,0.799 0.79981,0.799"
         id="path130" /></clipPath><linearGradient
       x1="0"
       y1="0"
       x2="1"
       y2="0"
       gradientUnits="userSpaceOnUse"
       gradientTransform="matrix(-1e-6,-31.816,31.816,-1e-6,18.15,32.078)"
       spreadMethod="pad"
       id="linearGradient140"><stop
         style="stop-opacity:1;stop-color:#ffffff"
         offset="0"
         id="stop136" /><stop
         style="stop-opacity:1;stop-color:#c4c4c4"
         offset="1"
         id="stop138" /></linearGradient><clipPath
       clipPathUnits="userSpaceOnUse"
       id="clipPath150"><path
         d="m 0.030001,36.3 h 36.27 V 0 h -36.27 z"
         id="path148" /></clipPath><clipPath
       clipPathUnits="userSpaceOnUse"
       id="clipPath1657"><path
         d="M 0,0 H 169.612 V 123.644 H 0 Z"
         id="path1655" /></clipPath><clipPath
       clipPathUnits="userSpaceOnUse"
       id="clipPath2069"><path
         d="M 0.029999,123.644 H 169.612 V 0 H 0.029999 Z"
         id="path2067" /></clipPath><clipPath
       clipPathUnits="userSpaceOnUse"
       id="clipPath2157"><path
         d="M 0.029999,123.644 H 169.612 V 0 H 0.029999 Z"
         id="path2155" /></clipPath><clipPath
       clipPathUnits="userSpaceOnUse"
       id="clipPath2217"><path
         d="M 0.029999,123.644 H 169.612 V 0 H 0.029999 Z"
         id="path2215" /></clipPath><clipPath
       clipPathUnits="userSpaceOnUse"
       id="clipPath2257"><path
         d="M 0.029999,123.644 H 169.612 V 0 H 0.029999 Z"
         id="path2255" /></clipPath></defs><sodipodi:namedview
     pagecolor="#ffffff"
     bordercolor="#666666"
     borderopacity="1"
     objecttolerance="10"
     gridtolerance="10"
     guidetolerance="10"
     inkscape:pageopacity="0"
     inkscape:pageshadow="2"
     inkscape:window-width="3440"
     inkscape:window-height="1377"
     id="namedview4"
     showgrid="false"
     fit-margin-top="0"
     fit-margin-left="0"
     fit-margin-right="0"
     fit-margin-bottom="0"
     inkscape:zoom="2.6940763"
     inkscape:cx="298.51994"
     inkscape:cy="58.611218"
     inkscape:window-x="1912"
     inkscape:window-y="-8"
     inkscape:window-maximized="1"
     inkscape:current-layer="g10" /><g
     id="g10"
     inkscape:groupmode="layer"
     inkscape:label="1-s2.0-S0005109823005617-main(1)"
     transform="matrix(1.3333333,0,0,-1.3333333,702.80771,1031.2324)"><g
       id="g11109"
       transform="translate(92.353586,-194.53857)"><g
         id="g1649"
         transform="translate(-619.48938,844.3189)"><g
           id="g1651"><g
             id="g1653"
             clip-path="url(#clipPath1657)"><g
               id="g1659"
               transform="translate(128.771,113.546)"><path
                 d="M 0,0 H 22.677 V -22.677 H 0 Z"
                 style="fill:none;stroke:#000000;stroke-width:0.319;stroke-linecap:butt;stroke-linejoin:miter;stroke-miterlimit:10;stroke-dasharray:none;stroke-opacity:1"
                 id="path1661" /><g
                 id="g1663"
                 transform="translate(-113.388,-113.387)"><path
                   d="M 22.678,0 H 0 v 22.678 h 22.678 z"
                   style="fill:none;stroke:#000000;stroke-width:0.319;stroke-linecap:butt;stroke-linejoin:miter;stroke-miterlimit:10;stroke-dasharray:none;stroke-opacity:1"
                   id="path1665" /><g
                   id="g1667"><path
                     d="M 0,0 Z"
                     style="fill:none;stroke:#000000;stroke-width:0.319;stroke-linecap:butt;stroke-linejoin:miter;stroke-miterlimit:10;stroke-dasharray:none;stroke-opacity:1"
                     id="path1669" /><g
                     id="g1671"
                     transform="translate(136.065)"><path
                       d="M -22.677,0 H 0 v 22.678 h -22.677 z"
                       style="fill:none;stroke:#000000;stroke-width:0.319;stroke-linecap:butt;stroke-linejoin:miter;stroke-miterlimit:10;stroke-dasharray:none;stroke-opacity:1"
                       id="path1673" /><g
                       id="g1675"><path
                         d="M 0,0 Z"
                         style="fill:none;stroke:#000000;stroke-width:0.319;stroke-linecap:butt;stroke-linejoin:miter;stroke-miterlimit:10;stroke-dasharray:none;stroke-opacity:1"
                         id="path1677" /><g
                         id="g1679"
                         transform="translate(-136.065,113.387)"><path
                           d="M 0,0 H 22.678 V -22.677 H 0 Z"
                           style="fill:none;stroke:#000000;stroke-width:0.319;stroke-linecap:butt;stroke-linejoin:miter;stroke-miterlimit:10;stroke-dasharray:none;stroke-opacity:1"
                           id="path1681" /><g
                           id="g1683"
                           transform="translate(113.388,-22.677)"><path
                             d="M 0,0 H -6.804 V 6.8032 H 0 Z"
                             style="fill:none;stroke:#000000;stroke-width:0.319;stroke-linecap:butt;stroke-linejoin:miter;stroke-miterlimit:10;stroke-dasharray:none;stroke-opacity:1"
                             id="path1685" /><g
                             id="g1687"
                             transform="translate(-113.388)"><path
                               d="M 11.339,0 H 0 v -6.8032 h 11.339 z"
                               style="fill:none;stroke:#000000;stroke-width:0.319;stroke-linecap:butt;stroke-linejoin:miter;stroke-miterlimit:10;stroke-dasharray:none;stroke-opacity:1"
                               id="path1689" /><g
                               id="g1691"><path
                                 d="M 0,0 Z"
                                 style="fill:none;stroke:#000000;stroke-width:0.319;stroke-linecap:butt;stroke-linejoin:miter;stroke-miterlimit:10;stroke-dasharray:none;stroke-opacity:1"
                                 id="path1693" /><g
                                 id="g1695"
                                 transform="translate(22.678,22.677)"><path
                                   d="m 0,0 h 90.71 v -15.874 h -6.803 l -4.533,-6.803 H 0 Z"
                                   style="fill:none;stroke:#000000;stroke-width:0.319;stroke-linecap:butt;stroke-linejoin:miter;stroke-miterlimit:10;stroke-dasharray:none;stroke-opacity:1"
                                   id="path1697" /><g
                                   id="g1699"
                                   transform="translate(113.387,-22.677)"><path
                                   d="M 0,0 V -68.032 H -22.677 V -90.71 h -90.71 v 22.678 h -22.678 v 29.48 h 11.339 v -6.803 h 71.819 l 4.536,6.803 18.89,28.345 2.27,3.404 h 11.336 V 0 Z"
                                   style="fill:none;stroke:#000000;stroke-width:0.319;stroke-linecap:butt;stroke-linejoin:miter;stroke-miterlimit:10;stroke-dasharray:none;stroke-opacity:1"
                                   id="path1701" /><g
                                   id="g1703"
                                   transform="translate(-29.481)"><path
                                   d="M 0,0 H -4.533 L 0,6.803 Z"
                                   style="fill:none;stroke:#000000;stroke-width:0.319;stroke-linecap:butt;stroke-linejoin:miter;stroke-miterlimit:10;stroke-dasharray:none;stroke-opacity:1"
                                   id="path1705" /><g
                                   id="g1707"
                                   transform="translate(6.804,-6.803)"><path
                                   d="M 0,0 V 6.803 L -4.534,0 Z"
                                   style="fill:none;stroke:#000000;stroke-width:0.319;stroke-linecap:butt;stroke-linejoin:miter;stroke-miterlimit:10;stroke-dasharray:none;stroke-opacity:1"
                                   id="path1709" /><g
                                   id="g1711"
                                   transform="translate(-113.388)"><path
                                   d="M 11.339,0 H 0 v -31.749 h 11.339 z"
                                   style="fill:none;stroke:#000000;stroke-width:0.319;stroke-linecap:butt;stroke-linejoin:miter;stroke-miterlimit:10;stroke-dasharray:none;stroke-opacity:1"
                                   id="path1713" /><g
                                   id="g1715"><path
                                   d="M 0,0 Z"
                                   style="fill:none;stroke:#000000;stroke-width:0.319;stroke-linecap:butt;stroke-linejoin:miter;stroke-miterlimit:10;stroke-dasharray:none;stroke-opacity:1"
                                   id="path1717" /><g
                                   id="g1719"
                                   transform="translate(113.388,6.803)"><path
                                   d="M 0,0 H 6.802 V -6.8032 H 0 Z"
                                   style="fill:none;stroke:#000000;stroke-width:0.319;stroke-linecap:butt;stroke-linejoin:miter;stroke-miterlimit:10;stroke-dasharray:none;stroke-opacity:1"
                                   id="path1721" /></g></g></g></g></g></g></g></g></g></g></g></g></g></g></g></g><g
               id="g1723"
               transform="translate(128.771,90.869)"><path
                 d="m 0,0 h -102.049 v -45.355 h 71.819 l 4.536,6.803 18.89,28.345 2.27,3.404 L 0,0"
                 style="fill:#bfbfbf;fill-opacity:1;fill-rule:nonzero;stroke:none"
                 id="path1725" /></g><g
               id="g1727"
               transform="translate(128.771,90.869)"><path
                 d="m 0,0 h -102.049 v -45.355 h 71.819 l 4.536,6.803 18.89,28.345 2.27,3.404 z"
                 style="fill:none;stroke:#000000;stroke-width:0.319;stroke-linecap:butt;stroke-linejoin:miter;stroke-miterlimit:10;stroke-dasharray:none;stroke-opacity:1"
                 id="path1729" /></g><g
               id="g1731"
               transform="translate(32.205,108.902)"><path
                 d="m 0,0 15.482,-0.497 13.854,-3.818 19.056,-0.522 7.039,-12.684 13.545,4.89 6.313,12.966 6.899,-3.893 13.81,2.154 11.977,-6.69 9.907,-15.334 -15.142,-4.715 -11.042,-16.461 10.961,-15.705 -4.212,-13.377 1.813,-15.681 1.696,7.694 -11.21,16.031 -15.4,9.284 -6.604,-10.214 -14.865,-11.507 -2.453,-1.669 -9.032,-1.598 -17.632,6.073 -17.016,-12.312 -10.293,-4.757 5.749,10.252 14.525,-8.307 16.033,8.2 8.164,5.177 13.849,-6.81 16.593,15.573 9.767,12.251 13.112,5.911 15.945,19.521 5.474,12.448 -11.15,8.785 9.504,-6.628 -8.171,-10.385 7.327,-12.268 -2.07,14.241 -4.82,10.944 L 94.07,3.03 78.951,2.508 66.332,-9.926 l -17.748,-4.993 -7.959,-2.572 -15.594,6.583 -11.245,1.925 -13.06,-3.333"
                 style="fill:none;stroke:#9f9f9f;stroke-width:0.319;stroke-linecap:butt;stroke-linejoin:miter;stroke-miterlimit:10;stroke-dasharray:none;stroke-opacity:1"
                 id="path1733" /></g><g
               id="g1735"
               transform="translate(33.202,108.902)"><path
                 d="m 0,0 c 0,0.55 -0.446,0.996 -0.997,0.996 -0.55,0 -0.996,-0.446 -0.996,-0.996 0,-0.55 0.446,-0.997 0.996,-0.997 C -0.446,-0.997 0,-0.55 0,0"
                 style="fill:#9f9f9f;fill-opacity:1;fill-rule:nonzero;stroke:none"
                 id="path1737" /></g><g
               id="g1739"
               transform="translate(48.684,108.406)"><path
                 d="M 0,0 C 0,0.55 -0.446,0.996 -0.996,0.996 -1.547,0.996 -1.993,0.55 -1.993,0 c 0,-0.55 0.446,-0.997 0.997,-0.997 C -0.446,-0.997 0,-0.55 0,0"
                 style="fill:#9f9f9f;fill-opacity:1;fill-rule:nonzero;stroke:none"
                 id="path1741" /></g><g
               id="g1743"
               transform="translate(62.537,104.587)"><path
                 d="M 0,0 C 0,0.55 -0.446,0.996 -0.996,0.996 -1.547,0.996 -1.992,0.55 -1.992,0 c 0,-0.55 0.445,-0.997 0.996,-0.997 C -0.446,-0.997 0,-0.55 0,0"
                 style="fill:#9f9f9f;fill-opacity:1;fill-rule:nonzero;stroke:none"
                 id="path1745" /></g><g
               id="g1747"
               transform="translate(73.851,104.25)"><path
                 d="M 0,0 -3.803,1.698 -3.89,-1.488 0,0"
                 style="fill:#9f9f9f;fill-opacity:1;fill-rule:nonzero;stroke:none"
                 id="path1749" /></g><g
               id="g1751"
               transform="translate(73.851,104.25)"><path
                 d="M 0,0 -3.803,1.698 -3.89,-1.488 Z"
                 style="fill:none;stroke:#404040;stroke-width:0.319;stroke-linecap:butt;stroke-linejoin:miter;stroke-miterlimit:10;stroke-dasharray:none;stroke-opacity:1"
                 id="path1753" /></g><g
               id="g1755"
               transform="translate(81.593,104.065)"><path
                 d="m 0,0 c 0,0.55 -0.446,0.997 -0.996,0.997 -0.55,0 -0.996,-0.447 -0.996,-0.997 0,-0.55 0.446,-0.996 0.996,-0.996 C -0.446,-0.996 0,-0.55 0,0"
                 style="fill:#9f9f9f;fill-opacity:1;fill-rule:nonzero;stroke:none"
                 id="path1757" /></g><g
               id="g1759"
               transform="translate(88.632,91.382)"><path
                 d="M 0,0 C 0,0.55 -0.446,0.996 -0.996,0.996 -1.547,0.996 -1.992,0.55 -1.992,0 c 0,-0.55 0.445,-0.997 0.996,-0.997 C -0.446,-0.997 0,-0.55 0,0"
                 style="fill:#9f9f9f;fill-opacity:1;fill-rule:nonzero;stroke:none"
                 id="path1761" /></g><g
               id="g1763"
               transform="translate(102.178,96.271)"><path
                 d="m 0,0 c 0,0.55 -0.447,0.996 -0.997,0.996 -0.55,0 -0.996,-0.446 -0.996,-0.996 0,-0.55 0.446,-0.996 0.996,-0.996 C -0.447,-0.996 0,-0.55 0,0"
                 style="fill:#9f9f9f;fill-opacity:1;fill-rule:nonzero;stroke:none"
                 id="path1765" /></g><g
               id="g1767"
               transform="translate(108.49,109.238)"><path
                 d="m 0,0 c 0,0.55 -0.445,0.996 -0.996,0.996 -0.55,0 -0.996,-0.446 -0.996,-0.996 0,-0.55 0.446,-0.996 0.996,-0.996 C -0.445,-0.996 0,-0.55 0,0"
                 style="fill:#9f9f9f;fill-opacity:1;fill-rule:nonzero;stroke:none"
                 id="path1769" /></g><g
               id="g1771"
               transform="translate(115.389,105.344)"><path
                 d="m 0,0 c 0,0.55 -0.446,0.996 -0.996,0.996 -0.55,0 -0.997,-0.446 -0.997,-0.996 0,-0.55 0.447,-0.996 0.997,-0.996 C -0.446,-0.996 0,-0.55 0,0"
                 style="fill:#9f9f9f;fill-opacity:1;fill-rule:nonzero;stroke:none"
                 id="path1773" /></g><g
               id="g1775"
               transform="translate(123.36,106.743)"><path
                 d="M 0,0 -3.035,0.736 -2.667,-1.626 0,0"
                 style="fill:#9f9f9f;fill-opacity:1;fill-rule:nonzero;stroke:none"
                 id="path1777" /></g><g
               id="g1779"
               transform="translate(123.36,106.743)"><path
                 d="m 0,0 -3.035,0.736 0.368,-2.362 z"
                 style="fill:none;stroke:#404040;stroke-width:0.319;stroke-linecap:butt;stroke-linejoin:miter;stroke-miterlimit:10;stroke-dasharray:none;stroke-opacity:1"
                 id="path1781" /></g><g
               id="g1783"
               transform="translate(129.2,107.498)"><path
                 d="m 0,0 c 0,0.55 -0.446,0.997 -0.997,0.997 -0.55,0 -0.996,-0.447 -0.996,-0.997 0,-0.55 0.446,-0.996 0.996,-0.996 C -0.446,-0.996 0,-0.55 0,0"
                 style="fill:#9f9f9f;fill-opacity:1;fill-rule:nonzero;stroke:none"
                 id="path1785" /></g><g
               id="g1787"
               transform="translate(141.176,100.809)"><path
                 d="M 0,0 C 0,0.55 -0.447,0.996 -0.996,0.996 -1.547,0.996 -1.993,0.55 -1.993,0 c 0,-0.55 0.446,-0.997 0.997,-0.997 C -0.447,-0.997 0,-0.55 0,0"
                 style="fill:#9f9f9f;fill-opacity:1;fill-rule:nonzero;stroke:none"
                 id="path1789" /></g><g
               id="g1791"
               transform="translate(151.083,85.474)"><path
                 d="m 0,0 c 0,0.55 -0.445,0.996 -0.996,0.996 -0.55,0 -0.996,-0.446 -0.996,-0.996 0,-0.55 0.446,-0.996 0.996,-0.996 C -0.445,-0.996 0,-0.55 0,0"
                 style="fill:#9f9f9f;fill-opacity:1;fill-rule:nonzero;stroke:none"
                 id="path1793" /></g><g
               id="g1795"
               transform="translate(135.941,80.759)"><path
                 d="M 0,0 C 0,0.55 -0.446,0.997 -0.996,0.997 -1.545,0.997 -1.992,0.55 -1.992,0 c 0,-0.55 0.447,-0.996 0.996,-0.996 C -0.446,-0.996 0,-0.55 0,0"
                 style="fill:#9f9f9f;fill-opacity:1;fill-rule:nonzero;stroke:none"
                 id="path1797" /></g><g
               id="g1799"
               transform="translate(124.9,64.298)"><path
                 d="M 0,0 C 0,0.55 -0.446,0.996 -0.997,0.996 -1.546,0.996 -1.993,0.55 -1.993,0 c 0,-0.55 0.447,-0.996 0.996,-0.996 C -0.446,-0.996 0,-0.55 0,0"
                 style="fill:#9f9f9f;fill-opacity:1;fill-rule:nonzero;stroke:none"
                 id="path1801" /></g><g
               id="g1803"
               transform="translate(130.578,54.734)"><path
                 d="M 0,0 -0.671,3.051 -2.632,1.683 0,0"
                 style="fill:#9f9f9f;fill-opacity:1;fill-rule:nonzero;stroke:none"
                 id="path1805" /></g><g
               id="g1807"
               transform="translate(130.578,54.734)"><path
                 d="M 0,0 -0.671,3.051 -2.632,1.683 Z"
                 style="fill:none;stroke:#404040;stroke-width:0.319;stroke-linecap:butt;stroke-linejoin:miter;stroke-miterlimit:10;stroke-dasharray:none;stroke-opacity:1"
                 id="path1809" /></g><g
               id="g1811"
               transform="translate(135.86,48.594)"><path
                 d="M 0,0 C 0,0.55 -0.446,0.997 -0.996,0.997 -1.547,0.997 -1.992,0.55 -1.992,0 c 0,-0.55 0.445,-0.996 0.996,-0.996 C -0.446,-0.996 0,-0.55 0,0"
                 style="fill:#9f9f9f;fill-opacity:1;fill-rule:nonzero;stroke:none"
                 id="path1813" /></g><g
               id="g1815"
               transform="translate(131.648,35.216)"><path
                 d="M 0,0 C 0,0.55 -0.445,0.997 -0.996,0.997 -1.545,0.997 -1.992,0.55 -1.992,0 c 0,-0.55 0.447,-0.996 0.996,-0.996 C -0.445,-0.996 0,-0.55 0,0"
                 style="fill:#9f9f9f;fill-opacity:1;fill-rule:nonzero;stroke:none"
                 id="path1817" /></g><g
               id="g1819"
               transform="translate(133.461,19.535)"><path
                 d="M 0,0 C 0,0.55 -0.446,0.996 -0.996,0.996 -1.547,0.996 -1.992,0.55 -1.992,0 c 0,-0.55 0.445,-0.996 0.996,-0.996 C -0.446,-0.996 0,-0.55 0,0"
                 style="fill:#9f9f9f;fill-opacity:1;fill-rule:nonzero;stroke:none"
                 id="path1821" /></g><g
               id="g1823"
               transform="translate(135.157,27.229)"><path
                 d="M 0,0 C 0,0.55 -0.446,0.996 -0.996,0.996 -1.547,0.996 -1.992,0.55 -1.992,0 c 0,-0.55 0.445,-0.997 0.996,-0.997 C -0.446,-0.997 0,-0.55 0,0"
                 style="fill:#9f9f9f;fill-opacity:1;fill-rule:nonzero;stroke:none"
                 id="path1825" /></g><g
               id="g1827"
               transform="translate(123.947,43.26)"><path
                 d="m 0,0 c 0,0.55 -0.446,0.996 -0.996,0.996 -0.55,0 -0.996,-0.446 -0.996,-0.996 0,-0.55 0.446,-0.996 0.996,-0.996 C -0.446,-0.996 0,-0.55 0,0"
                 style="fill:#9f9f9f;fill-opacity:1;fill-rule:nonzero;stroke:none"
                 id="path1829" /></g><g
               id="g1831"
               transform="translate(113.463,48.98)"><path
                 d="M 0,0 1.855,-2.514 3.09,-0.466 0,0"
                 style="fill:#9f9f9f;fill-opacity:1;fill-rule:nonzero;stroke:none"
                 id="path1833" /></g><g
               id="g1835"
               transform="translate(113.463,48.98)"><path
                 d="M 0,0 1.855,-2.514 3.09,-0.466 Z"
                 style="fill:none;stroke:#404040;stroke-width:0.319;stroke-linecap:butt;stroke-linejoin:miter;stroke-miterlimit:10;stroke-dasharray:none;stroke-opacity:1"
                 id="path1837" /></g><g
               id="g1839"
               transform="translate(108.548,52.544)"><path
                 d="m 0,0 c 0,0.55 -0.446,0.996 -0.997,0.996 -0.55,0 -0.996,-0.446 -0.996,-0.996 0,-0.55 0.446,-0.997 0.996,-0.997 C -0.446,-0.997 0,-0.55 0,0"
                 style="fill:#9f9f9f;fill-opacity:1;fill-rule:nonzero;stroke:none"
                 id="path1841" /></g><g
               id="g1843"
               transform="translate(101.943,42.33)"><path
                 d="m 0,0 c 0,0.55 -0.445,0.996 -0.996,0.996 -0.55,0 -0.996,-0.446 -0.996,-0.996 0,-0.55 0.446,-0.997 0.996,-0.997 C -0.445,-0.997 0,-0.55 0,0"
                 style="fill:#9f9f9f;fill-opacity:1;fill-rule:nonzero;stroke:none"
                 id="path1845" /></g><g
               id="g1847"
               transform="translate(87.079,30.824)"><path
                 d="m 0,0 c 0,0.55 -0.446,0.997 -0.997,0.997 -0.55,0 -0.996,-0.447 -0.996,-0.997 0,-0.55 0.446,-0.996 0.996,-0.996 C -0.446,-0.996 0,-0.55 0,0"
                 style="fill:#9f9f9f;fill-opacity:1;fill-rule:nonzero;stroke:none"
                 id="path1849" /></g><g
               id="g1851"
               transform="translate(84.625,29.155)"><path
                 d="M 0,0 C 0,0.55 -0.446,0.996 -0.996,0.996 -1.547,0.996 -1.992,0.55 -1.992,0 c 0,-0.55 0.445,-0.996 0.996,-0.996 C -0.446,-0.996 0,-0.55 0,0"
                 style="fill:#9f9f9f;fill-opacity:1;fill-rule:nonzero;stroke:none"
                 id="path1853" /></g><g
               id="g1855"
               transform="translate(75.593,27.556)"><path
                 d="M 0,0 C 0,0.55 -0.446,0.996 -0.996,0.996 -1.547,0.996 -1.993,0.55 -1.993,0 c 0,-0.55 0.446,-0.997 0.997,-0.997 C -0.446,-0.997 0,-0.55 0,0"
                 style="fill:#9f9f9f;fill-opacity:1;fill-rule:nonzero;stroke:none"
                 id="path1857" /></g><g
               id="g1859"
               transform="translate(63.807,31.272)"><path
                 d="M 0,0 2.34,-2.07 3.118,0.19 0,0"
                 style="fill:#9f9f9f;fill-opacity:1;fill-rule:nonzero;stroke:none"
                 id="path1861" /></g><g
               id="g1863"
               transform="translate(63.807,31.272)"><path
                 d="M 0,0 2.34,-2.07 3.118,0.19 Z"
                 style="fill:none;stroke:#404040;stroke-width:0.319;stroke-linecap:butt;stroke-linejoin:miter;stroke-miterlimit:10;stroke-dasharray:none;stroke-opacity:1"
                 id="path1865" /></g><g
               id="g1867"
               transform="translate(57.961,33.629)"><path
                 d="M 0,0 C 0,0.55 -0.446,0.996 -0.996,0.996 -1.547,0.996 -1.992,0.55 -1.992,0 c 0,-0.55 0.445,-0.997 0.996,-0.997 C -0.446,-0.997 0,-0.55 0,0"
                 style="fill:#9f9f9f;fill-opacity:1;fill-rule:nonzero;stroke:none"
                 id="path1869" /></g><g
               id="g1871"
               transform="translate(40.946,21.317)"><path
                 d="m 0,0 c 0,0.551 -0.446,0.996 -0.997,0.996 -0.55,0 -0.996,-0.445 -0.996,-0.996 0,-0.55 0.446,-0.996 0.996,-0.996 C -0.446,-0.996 0,-0.55 0,0"
                 style="fill:#9f9f9f;fill-opacity:1;fill-rule:nonzero;stroke:none"
                 id="path1873" /></g><g
               id="g1875"
               transform="translate(30.652,16.56)"><path
                 d="m 0,0 c 0,0.55 -0.446,0.996 -0.996,0.996 -0.55,0 -0.996,-0.446 -0.996,-0.996 0,-0.55 0.446,-0.997 0.996,-0.997 C -0.446,-0.997 0,-0.55 0,0"
                 style="fill:#9f9f9f;fill-opacity:1;fill-rule:nonzero;stroke:none"
                 id="path1877" /></g><g
               id="g1879"
               transform="translate(36.401,26.812)"><path
                 d="M 0,0 C 0,0.55 -0.446,0.996 -0.996,0.996 -1.547,0.996 -1.992,0.55 -1.992,0 c 0,-0.55 0.445,-0.996 0.996,-0.996 C -0.446,-0.996 0,-0.55 0,0"
                 style="fill:#9f9f9f;fill-opacity:1;fill-rule:nonzero;stroke:none"
                 id="path1881" /></g><g
               id="g1883"
               transform="translate(50.927,18.505)"><path
                 d="m 0,0 c 0,0.551 -0.446,0.997 -0.997,0.997 -0.55,0 -0.996,-0.446 -0.996,-0.997 0,-0.549 0.446,-0.996 0.996,-0.996 C -0.446,-0.996 0,-0.549 0,0"
                 style="fill:#9f9f9f;fill-opacity:1;fill-rule:nonzero;stroke:none"
                 id="path1885" /></g><g
               id="g1887"
               transform="translate(59.805,23.556)"><path
                 d="M 0,0 -3.113,-0.25 -2.025,-2.379 0,0"
                 style="fill:#9f9f9f;fill-opacity:1;fill-rule:nonzero;stroke:none"
                 id="path1889" /></g><g
               id="g1891"
               transform="translate(59.805,23.556)"><path
                 d="m 0,0 -3.113,-0.25 1.088,-2.129 z"
                 style="fill:none;stroke:#404040;stroke-width:0.319;stroke-linecap:butt;stroke-linejoin:miter;stroke-miterlimit:10;stroke-dasharray:none;stroke-opacity:1"
                 id="path1893" /></g><g
               id="g1895"
               transform="translate(66.959,26.705)"><path
                 d="M 0,0 C 0,0.55 -0.446,0.996 -0.996,0.996 -1.547,0.996 -1.992,0.55 -1.992,0 c 0,-0.55 0.445,-0.997 0.996,-0.997 C -0.446,-0.997 0,-0.55 0,0"
                 style="fill:#9f9f9f;fill-opacity:1;fill-rule:nonzero;stroke:none"
                 id="path1897" /></g><g
               id="g1899"
               transform="translate(75.123,31.883)"><path
                 d="M 0,0 C 0,0.55 -0.446,0.996 -0.996,0.996 -1.547,0.996 -1.993,0.55 -1.993,0 c 0,-0.55 0.446,-0.997 0.997,-0.997 C -0.446,-0.997 0,-0.55 0,0"
                 style="fill:#9f9f9f;fill-opacity:1;fill-rule:nonzero;stroke:none"
                 id="path1901" /></g><g
               id="g1903"
               transform="translate(88.972,25.073)"><path
                 d="m 0,0 c 0,0.55 -0.445,0.997 -0.996,0.997 -0.55,0 -0.996,-0.447 -0.996,-0.997 0,-0.55 0.446,-0.996 0.996,-0.996 C -0.445,-0.996 0,-0.55 0,0"
                 style="fill:#9f9f9f;fill-opacity:1;fill-rule:nonzero;stroke:none"
                 id="path1905" /></g><g
               id="g1907"
               transform="translate(105.565,40.645)"><path
                 d="m 0,0 c 0,0.55 -0.446,0.997 -0.996,0.997 -0.55,0 -0.997,-0.447 -0.997,-0.997 0,-0.55 0.447,-0.996 0.997,-0.996 C -0.446,-0.996 0,-0.55 0,0"
                 style="fill:#9f9f9f;fill-opacity:1;fill-rule:nonzero;stroke:none"
                 id="path1909" /></g><g
               id="g1911"
               transform="translate(115.332,52.896)"><path
                 d="m 0,0 c 0,0.55 -0.445,0.996 -0.996,0.996 -0.55,0 -0.996,-0.446 -0.996,-0.996 0,-0.55 0.446,-0.997 0.996,-0.997 C -0.445,-0.997 0,-0.55 0,0"
                 style="fill:#9f9f9f;fill-opacity:1;fill-rule:nonzero;stroke:none"
                 id="path1913" /></g><g
               id="g1915"
               transform="translate(122.795,56.709)"><path
                 d="M 0,0 -3.122,-0.096 -2.14,-2.276 0,0"
                 style="fill:#9f9f9f;fill-opacity:1;fill-rule:nonzero;stroke:none"
                 id="path1917" /></g><g
               id="g1919"
               transform="translate(122.795,56.709)"><path
                 d="m 0,0 -3.122,-0.096 0.982,-2.18 z"
                 style="fill:none;stroke:#404040;stroke-width:0.319;stroke-linecap:butt;stroke-linejoin:miter;stroke-miterlimit:10;stroke-dasharray:none;stroke-opacity:1"
                 id="path1921" /></g><g
               id="g1923"
               transform="translate(128.444,58.808)"><path
                 d="M 0,0 C 0,0.55 -0.446,0.997 -0.996,0.997 -1.547,0.997 -1.992,0.55 -1.992,0 c 0,-0.55 0.445,-0.996 0.996,-0.996 C -0.446,-0.996 0,-0.55 0,0"
                 style="fill:#9f9f9f;fill-opacity:1;fill-rule:nonzero;stroke:none"
                 id="path1925" /></g><g
               id="g1927"
               transform="translate(144.39,78.329)"><path
                 d="m 0,0 c 0,0.55 -0.447,0.996 -0.997,0.996 -0.55,0 -0.997,-0.446 -0.997,-0.996 0,-0.55 0.447,-0.996 0.997,-0.996 C -0.447,-0.996 0,-0.55 0,0"
                 style="fill:#9f9f9f;fill-opacity:1;fill-rule:nonzero;stroke:none"
                 id="path1929" /></g><g
               id="g1931"
               transform="translate(149.863,90.776)"><path
                 d="m 0,0 c 0,0.55 -0.446,0.997 -0.996,0.997 -0.55,0 -0.996,-0.447 -0.996,-0.997 0,-0.55 0.446,-0.996 0.996,-0.996 C -0.446,-0.996 0,-0.55 0,0"
                 style="fill:#9f9f9f;fill-opacity:1;fill-rule:nonzero;stroke:none"
                 id="path1933" /></g><g
               id="g1935"
               transform="translate(138.713,99.561)"><path
                 d="M 0,0 C 0,0.55 -0.446,0.996 -0.996,0.996 -1.547,0.996 -1.992,0.55 -1.992,0 c 0,-0.55 0.445,-0.997 0.996,-0.997 C -0.446,-0.997 0,-0.55 0,0"
                 style="fill:#9f9f9f;fill-opacity:1;fill-rule:nonzero;stroke:none"
                 id="path1937" /></g><g
               id="g1939"
               transform="translate(148.217,92.933)"><path
                 d="m 0,0 c 0,0.55 -0.446,0.996 -0.996,0.996 -0.55,0 -0.996,-0.446 -0.996,-0.996 0,-0.55 0.446,-0.997 0.996,-0.997 C -0.446,-0.997 0,-0.55 0,0"
                 style="fill:#9f9f9f;fill-opacity:1;fill-rule:nonzero;stroke:none"
                 id="path1941" /></g><g
               id="g1943"
               transform="translate(141.845,86.1)"><path
                 d="M 0,0 2.723,1.529 0.844,3.008 0,0"
                 style="fill:#9f9f9f;fill-opacity:1;fill-rule:nonzero;stroke:none"
                 id="path1945" /></g><g
               id="g1947"
               transform="translate(141.845,86.1)"><path
                 d="M 0,0 2.723,1.529 0.844,3.008 Z"
                 style="fill:none;stroke:#404040;stroke-width:0.319;stroke-linecap:butt;stroke-linejoin:miter;stroke-miterlimit:10;stroke-dasharray:none;stroke-opacity:1"
                 id="path1949" /></g><g
               id="g1951"
               transform="translate(140.046,82.549)"><path
                 d="m 0,0 c 0,0.55 -0.445,0.996 -0.996,0.996 -0.55,0 -0.996,-0.446 -0.996,-0.996 0,-0.55 0.446,-0.996 0.996,-0.996 C -0.445,-0.996 0,-0.55 0,0"
                 style="fill:#9f9f9f;fill-opacity:1;fill-rule:nonzero;stroke:none"
                 id="path1953" /></g><g
               id="g1955"
               transform="translate(147.373,70.28)"><path
                 d="m 0,0 c 0,0.55 -0.445,0.997 -0.996,0.997 -0.55,0 -0.996,-0.447 -0.996,-0.997 0,-0.55 0.446,-0.996 0.996,-0.996 C -0.445,-0.996 0,-0.55 0,0"
                 style="fill:#9f9f9f;fill-opacity:1;fill-rule:nonzero;stroke:none"
                 id="path1957" /></g><g
               id="g1959"
               transform="translate(145.303,84.521)"><path
                 d="m 0,0 c 0,0.55 -0.446,0.997 -0.996,0.997 -0.55,0 -0.996,-0.447 -0.996,-0.997 0,-0.55 0.446,-0.996 0.996,-0.996 C -0.446,-0.996 0,-0.55 0,0"
                 style="fill:#9f9f9f;fill-opacity:1;fill-rule:nonzero;stroke:none"
                 id="path1961" /></g><g
               id="g1963"
               transform="translate(140.483,95.466)"><path
                 d="M 0,0 C 0,0.55 -0.445,0.996 -0.996,0.996 -1.545,0.996 -1.992,0.55 -1.992,0 c 0,-0.55 0.447,-0.996 0.996,-0.996 C -0.445,-0.996 0,-0.55 0,0"
                 style="fill:#9f9f9f;fill-opacity:1;fill-rule:nonzero;stroke:none"
                 id="path1965" /></g><g
               id="g1967"
               transform="translate(127.272,111.932)"><path
                 d="M 0,0 C 0,0.55 -0.446,0.996 -0.997,0.996 -1.546,0.996 -1.993,0.55 -1.993,0 c 0,-0.55 0.447,-0.997 0.996,-0.997 C -0.446,-0.997 0,-0.55 0,0"
                 style="fill:#9f9f9f;fill-opacity:1;fill-rule:nonzero;stroke:none"
                 id="path1969" /></g><g
               id="g1971"
               transform="translate(116.63,111.599)"><path
                 d="M 0,0 2.926,-1.095 2.844,1.294 0,0"
                 style="fill:#9f9f9f;fill-opacity:1;fill-rule:nonzero;stroke:none"
                 id="path1973" /></g><g
               id="g1975"
               transform="translate(116.63,111.599)"><path
                 d="M 0,0 2.926,-1.095 2.844,1.294 Z"
                 style="fill:none;stroke:#404040;stroke-width:0.319;stroke-linecap:butt;stroke-linejoin:miter;stroke-miterlimit:10;stroke-dasharray:none;stroke-opacity:1"
                 id="path1977" /></g><g
               id="g1979"
               transform="translate(112.153,111.411)"><path
                 d="m 0,0 c 0,0.55 -0.446,0.996 -0.997,0.996 -0.55,0 -0.996,-0.446 -0.996,-0.996 0,-0.55 0.446,-0.996 0.996,-0.996 C -0.446,-0.996 0,-0.55 0,0"
                 style="fill:#9f9f9f;fill-opacity:1;fill-rule:nonzero;stroke:none"
                 id="path1981" /></g><g
               id="g1983"
               transform="translate(99.533,98.976)"><path
                 d="M 0,0 C 0,0.55 -0.446,0.997 -0.996,0.997 -1.547,0.997 -1.993,0.55 -1.993,0 c 0,-0.55 0.446,-0.996 0.997,-0.996 C -0.446,-0.996 0,-0.55 0,0"
                 style="fill:#9f9f9f;fill-opacity:1;fill-rule:nonzero;stroke:none"
                 id="path1985" /></g><g
               id="g1987"
               transform="translate(81.786,93.983)"><path
                 d="m 0,0 c 0,0.55 -0.446,0.996 -0.997,0.996 -0.55,0 -0.996,-0.446 -0.996,-0.996 0,-0.55 0.446,-0.997 0.996,-0.997 C -0.446,-0.997 0,-0.55 0,0"
                 style="fill:#9f9f9f;fill-opacity:1;fill-rule:nonzero;stroke:none"
                 id="path1989" /></g><g
               id="g1991"
               transform="translate(73.826,91.411)"><path
                 d="M 0,0 C 0,0.55 -0.446,0.996 -0.996,0.996 -1.547,0.996 -1.993,0.55 -1.993,0 c 0,-0.55 0.446,-0.997 0.997,-0.997 C -0.446,-0.997 0,-0.55 0,0"
                 style="fill:#9f9f9f;fill-opacity:1;fill-rule:nonzero;stroke:none"
                 id="path1993" /></g><g
               id="g1995"
               transform="translate(58.232,97.994)"><path
                 d="m 0,0 c 0,0.55 -0.445,0.997 -0.996,0.997 -0.55,0 -0.996,-0.447 -0.996,-0.997 0,-0.55 0.446,-0.996 0.996,-0.996 C -0.445,-0.996 0,-0.55 0,0"
                 style="fill:#9f9f9f;fill-opacity:1;fill-rule:nonzero;stroke:none"
                 id="path1997" /></g><g
               id="g1999"
               transform="translate(49.556,99.309)"><path
                 d="M 0,0 2.644,-1.665 3.047,0.691 0,0"
                 style="fill:#9f9f9f;fill-opacity:1;fill-rule:nonzero;stroke:none"
                 id="path2001" /></g><g
               id="g2003"
               transform="translate(49.556,99.309)"><path
                 d="M 0,0 2.644,-1.665 3.047,0.691 Z"
                 style="fill:none;stroke:#404040;stroke-width:0.319;stroke-linecap:butt;stroke-linejoin:miter;stroke-miterlimit:10;stroke-dasharray:none;stroke-opacity:1"
                 id="path2005" /></g><g
               id="g2007"
               transform="translate(46.987,99.919)"><path
                 d="M 0,0 C 0,0.55 -0.446,0.997 -0.996,0.997 -1.547,0.997 -1.993,0.55 -1.993,0 c 0,-0.55 0.446,-0.996 0.997,-0.996 C -0.446,-0.996 0,-0.55 0,0"
                 style="fill:#9f9f9f;fill-opacity:1;fill-rule:nonzero;stroke:none"
                 id="path2009" /></g><g
               id="g2011"
               transform="translate(33.928,96.586)"><path
                 d="m 0,0 c 0,0.55 -0.446,0.996 -0.997,0.996 -0.55,0 -0.996,-0.446 -0.996,-0.996 0,-0.55 0.446,-0.997 0.996,-0.997 C -0.446,-0.997 0,-0.55 0,0"
                 style="fill:#9f9f9f;fill-opacity:1;fill-rule:nonzero;stroke:none"
                 id="path2013" /></g><g
               id="g2015"
               transform="translate(63.494,68.964)"><path
                 d="m 0,0 c 0,1.307 -0.813,2.08 -1.817,2.08 -1.634,0 -3.284,-1.889 -3.284,-3.738 0,-1.203 0.749,-2.056 1.833,-2.056 C -1.674,-3.714 0,-1.921 0,0 Z m -3.212,-3.507 c -0.725,0 -1.172,0.653 -1.172,1.602 0,0.366 0.112,1.483 0.67,2.455 0.422,0.749 1.148,1.331 1.841,1.331 0.621,0 1.195,-0.478 1.195,-1.546 0,-0.702 -0.287,-1.762 -0.709,-2.487 -0.518,-0.885 -1.227,-1.355 -1.825,-1.355"
                 style="fill:#000000;fill-opacity:1;fill-rule:nonzero;stroke:none"
                 id="path2017" /></g><g
               id="g2019"
               transform="translate(65.739,70.757)"><path
                 d="m 0,0 c 0.008,0.024 0.023,0.088 0.023,0.104 0,0.071 -0.048,0.095 -0.111,0.095 -0.023,0 -0.103,-0.008 -0.127,-0.015 L -1.004,0.12 C -1.1,0.112 -1.187,0.104 -1.187,-0.048 c 0,-0.087 0.079,-0.087 0.191,-0.087 0.382,0 0.398,-0.056 0.398,-0.136 0,-0.024 -0.024,-0.127 -0.024,-0.135 l -0.789,-3.149 c -0.008,-0.024 -0.087,-0.35 -0.087,-0.653 0,-0.669 0.334,-1.211 0.916,-1.211 0.893,0 1.825,1.195 1.825,2.367 0,0.852 -0.478,1.243 -0.956,1.243 -0.303,0 -0.574,-0.168 -0.845,-0.422 z m -0.582,-5.244 c -0.199,0 -0.462,0.167 -0.462,0.765 0,0.351 0.071,0.629 0.303,1.538 0.055,0.192 0.055,0.208 0.175,0.367 0.231,0.319 0.534,0.59 0.837,0.59 0.359,0 0.438,-0.455 0.438,-0.71 0,-0.334 -0.215,-1.283 -0.446,-1.793 -0.096,-0.199 -0.439,-0.757 -0.845,-0.757"
                 style="fill:#000000;fill-opacity:1;fill-rule:nonzero;stroke:none"
                 id="path2021" /></g><g
               id="g2023"
               transform="translate(68.963,66.995)"><path
                 d="m 0,0 c 0.349,-0.08 0.705,-0.16 0.705,-0.59 0,-0.255 -0.215,-0.892 -1.036,-0.892 -0.175,0 -0.637,0.04 -0.765,0.446 0.407,0.04 0.407,0.374 0.407,0.39 0,0.152 -0.104,0.255 -0.271,0.255 -0.184,0 -0.407,-0.135 -0.407,-0.494 0,-0.486 0.463,-0.773 1.028,-0.773 1.195,0 1.499,0.972 1.499,1.339 0,0.693 -0.619,0.837 -0.943,0.909 -0.223,0.048 -0.508,0.111 -0.508,0.454 0,0.191 0.167,0.733 0.801,0.733 0.214,0 0.507,-0.079 0.594,-0.39 C 0.849,1.355 0.785,1.14 0.785,1.06 c 0,-0.088 0.048,-0.223 0.239,-0.223 0.136,0 0.343,0.096 0.343,0.438 0,0.367 -0.326,0.678 -0.849,0.678 -0.929,0 -1.255,-0.765 -1.255,-1.18 C -0.737,0.159 -0.222,0.048 0,0"
                 style="fill:#000000;fill-opacity:1;fill-rule:nonzero;stroke:none"
                 id="path2025" /></g><g
               id="g2027"
               transform="translate(72.321,68.613)"><path
                 d="m 0,0 h 0.678 c 0.136,0 0.223,0 0.223,0.152 0,0.095 -0.072,0.095 -0.199,0.095 H 0.064 l 0.295,1.18 c 0.032,0.112 0.032,0.127 0.032,0.167 0,0.168 -0.135,0.207 -0.215,0.207 -0.199,0 -0.28,-0.167 -0.311,-0.286 L -0.446,0.247 h -0.677 c -0.136,0 -0.224,0 -0.224,-0.151 C -1.347,0 -1.275,0 -1.147,0 h 0.637 l -0.574,-2.287 c -0.008,-0.032 -0.039,-0.16 -0.039,-0.271 0,-0.399 0.263,-0.717 0.677,-0.717 0.805,0 1.212,1.187 1.212,1.227 0,0.08 -0.064,0.08 -0.12,0.08 C 0.55,-1.968 0.55,-1.977 0.486,-2.12 0.343,-2.502 0.024,-3.1 -0.43,-3.1 c -0.216,0 -0.216,0.199 -0.216,0.327 0,0.055 0,0.183 0.056,0.406 L 0,0"
                 style="fill:#000000;fill-opacity:1;fill-rule:nonzero;stroke:none"
                 id="path2029" /></g><g
               id="g2031"
               transform="translate(75.679,65.895)"><path
                 d="m 0,0 c 0.088,-0.39 0.383,-0.558 0.661,-0.558 0.295,0 0.463,0.2 0.582,0.447 0.144,0.302 0.239,0.765 0.239,0.781 0,0.079 -0.063,0.079 -0.119,0.079 C 1.268,0.749 1.259,0.741 1.211,0.566 1.1,0.12 0.948,-0.382 0.678,-0.382 c -0.208,0 -0.208,0.215 -0.208,0.326 0,0.056 0,0.184 0.056,0.407 L 1.068,2.518 C 1.1,2.63 1.1,2.646 1.1,2.686 1.1,2.853 0.964,2.893 0.885,2.893 0.63,2.893 0.574,2.622 0.565,2.582 0.414,2.925 0.159,3.053 -0.096,3.053 -0.981,3.053 -1.921,1.841 -1.921,0.678 -1.921,0 -1.555,-0.558 -0.956,-0.558 -0.67,-0.558 -0.319,-0.39 0,0 Z M 0.431,2.024 0.056,0.518 c -0.064,-0.255 -0.558,-0.9 -0.996,-0.9 -0.375,0 -0.439,0.47 -0.439,0.709 0,0.399 0.247,1.331 0.391,1.666 0.199,0.486 0.565,0.884 0.892,0.884 0.351,0 0.55,-0.414 0.55,-0.749 0,-0.016 -0.008,-0.056 -0.023,-0.104"
                 style="fill:#000000;fill-opacity:1;fill-rule:nonzero;stroke:none"
                 id="path2033" /></g><g
               id="g2035"
               transform="translate(80.438,68.43)"><path
                 d="m 0,0 c -0.398,-0.048 -0.398,-0.374 -0.398,-0.391 0,-0.127 0.087,-0.255 0.27,-0.255 0.216,0 0.407,0.176 0.407,0.479 0,0.39 -0.343,0.685 -0.853,0.685 -0.989,0 -2.016,-1.132 -2.016,-2.295 0,-0.789 0.47,-1.315 1.171,-1.315 1.021,0 1.682,0.797 1.682,0.916 0,0.04 -0.064,0.128 -0.127,0.128 -0.033,0 -0.04,-0.008 -0.104,-0.088 -0.59,-0.749 -1.3,-0.781 -1.434,-0.781 -0.431,0 -0.63,0.359 -0.63,0.821 0,0.422 0.215,1.259 0.422,1.642 0.287,0.518 0.685,0.797 1.045,0.797 C -0.479,0.343 -0.119,0.327 0,0"
                 style="fill:#000000;fill-opacity:1;fill-rule:nonzero;stroke:none"
                 id="path2037" /></g><g
               id="g2039"
               transform="translate(83.052,70.757)"><path
                 d="m 0,0 c 0.008,0.024 0.023,0.088 0.023,0.104 0,0.071 -0.048,0.095 -0.111,0.095 -0.023,0 -0.103,-0.008 -0.127,-0.015 L -1.004,0.12 C -1.1,0.112 -1.187,0.104 -1.187,-0.048 c 0,-0.087 0.08,-0.087 0.191,-0.087 0.383,0 0.398,-0.056 0.398,-0.136 0,-0.024 -0.024,-0.127 -0.024,-0.135 l -0.996,-3.985 c -0.008,-0.032 -0.048,-0.191 -0.048,-0.311 0,-0.422 0.287,-0.717 0.67,-0.717 0.303,0 0.462,0.215 0.565,0.414 0.136,0.279 0.247,0.789 0.247,0.813 0,0.08 -0.063,0.08 -0.119,0.08 -0.04,0 -0.088,0 -0.111,-0.04 l -0.057,-0.2 c -0.135,-0.558 -0.286,-0.892 -0.51,-0.892 -0.206,0 -0.206,0.215 -0.206,0.327 0,0.055 0,0.175 0.047,0.366 L 0,0"
                 style="fill:#000000;fill-opacity:1;fill-rule:nonzero;stroke:none"
                 id="path2041" /></g><g
               id="g2043"
               transform="translate(84.579,67.266)"><path
                 d="m 0,0 c 0.239,0 0.772,0.024 1.155,0.175 0.63,0.255 0.63,0.773 0.63,0.829 0,0.367 -0.295,0.678 -0.805,0.678 -0.836,0 -1.976,-0.806 -1.976,-2.216 0,-0.718 0.382,-1.395 1.14,-1.395 1.019,0 1.681,0.797 1.681,0.917 0,0.04 -0.064,0.127 -0.128,0.127 -0.032,0 -0.04,-0.008 -0.103,-0.087 -0.59,-0.75 -1.299,-0.781 -1.435,-0.781 -0.518,0 -0.605,0.565 -0.605,0.876 0,0.303 0.079,0.662 0.134,0.877 z M -0.264,0.175 C 0.079,1.482 0.9,1.506 0.98,1.506 1.299,1.506 1.482,1.291 1.482,1.02 1.482,0.175 0.167,0.175 -0.096,0.175 h -0.168"
                 style="fill:#000000;fill-opacity:1;fill-rule:nonzero;stroke:none"
                 id="path2045" /></g><g
               id="g2047"
               transform="translate(21.855,120.846)"><path
                 d="M 0,0 H -0.71 V -2.415 H -3.428 V 0 h -0.709 v -5.531 h 0.709 v 2.63 h 2.718 v -2.63 H 0 V 0"
                 style="fill:#000000;fill-opacity:1;fill-rule:nonzero;stroke:none"
                 id="path2049" /></g><g
               id="g2051"
               transform="translate(26.353,117.068)"><path
                 d="m 0,0 c 0,1.068 -0.797,1.921 -1.745,1.921 -0.981,0 -1.754,-0.877 -1.754,-1.921 0,-1.052 0.813,-1.841 1.746,-1.841 C -0.797,-1.841 0,-1.036 0,0 Z m -1.753,-1.331 c -0.55,0 -1.124,0.446 -1.124,1.411 0,0.964 0.606,1.355 1.124,1.355 0.558,0 1.132,-0.414 1.132,-1.355 0,-0.941 -0.542,-1.411 -1.132,-1.411"
                 style="fill:#000000;fill-opacity:1;fill-rule:nonzero;stroke:none"
                 id="path2053" /></g><g
               id="g2055"
               transform="translate(32.282,117.69)"><path
                 d="m 0,0 c 0,0.534 -0.127,1.251 -1.092,1.251 -0.478,0 -0.892,-0.223 -1.187,-0.653 -0.207,0.605 -0.765,0.653 -1.021,0.653 -0.573,0 -0.948,-0.327 -1.163,-0.614 v 0.574 h -0.574 v -3.586 h 0.622 v 1.952 c 0,0.542 0.215,1.188 0.805,1.188 0.741,0 0.781,-0.518 0.781,-0.821 v -2.319 h 0.622 v 1.952 c 0,0.542 0.215,1.188 0.805,1.188 0.741,0 0.781,-0.518 0.781,-0.821 V -2.375 H 0 V 0"
                 style="fill:#000000;fill-opacity:1;fill-rule:nonzero;stroke:none"
                 id="path2057" /></g><g
               id="g2059"
               transform="translate(36.23,117.06)"><path
                 d="m 0,0 c 0,0.271 -0.008,0.869 -0.318,1.347 -0.327,0.494 -0.814,0.582 -1.1,0.582 -0.885,0 -1.603,-0.845 -1.603,-1.873 0,-1.052 0.766,-1.889 1.722,-1.889 0.502,0 0.956,0.191 1.268,0.414 L -0.079,-0.9 c -0.502,-0.415 -1.028,-0.447 -1.212,-0.447 -0.638,0 -1.147,0.566 -1.172,1.347 z m -2.423,0.438 c 0.128,0.606 0.55,1.004 1.005,1.004 0.414,0 0.86,-0.271 0.964,-1.004 h -1.969"
                 style="fill:#000000;fill-opacity:1;fill-rule:nonzero;stroke:none"
                 id="path2061" /></g><g
               id="g2063"><g
                 id="g2065"
                 clip-path="url(#clipPath2069)"><g
                   id="g2071"
                   transform="translate(5.3398,101.342)"><path
                     d="m 0,0 c 0.0156,0.04 0.0391,0.095 0.0391,0.111 0,0.008 0,0.088 -0.0948,0.088 -0.0722,0 -0.0878,-0.048 -0.1045,-0.095 -0.5175,-1.18 -0.8124,-1.714 -2.1757,-1.714 H -3.499 c -0.1114,0 -0.1279,0 -0.1758,0.008 -0.0791,0.008 -0.1035,0.016 -0.1035,0.08 0,0.023 0,0.04 0.04,0.183 l 0.542,2.176 h 0.7891 c 0.6777,0 0.6777,-0.168 0.6777,-0.367 0,-0.056 0,-0.152 -0.0556,-0.39 -0.0167,-0.04 -0.0245,-0.064 -0.0245,-0.088 0,-0.04 0.0323,-0.088 0.1035,-0.088 0.0635,0 0.0879,0.04 0.1202,0.159 l 0.4541,1.866 c 0,0.048 -0.0401,0.087 -0.0957,0.087 -0.0723,0 -0.0879,-0.048 -0.1114,-0.143 -0.1679,-0.606 -0.3115,-0.79 -1.0449,-0.79 h -0.749 l 0.4785,1.921 c 0.0713,0.279 0.0801,0.311 0.4307,0.311 h 1.123 c 0.9727,0 1.2119,-0.231 1.2119,-0.884 0,-0.192 0,-0.207 -0.0322,-0.423 0,-0.047 -0.0078,-0.103 -0.0078,-0.143 0,-0.04 0.0244,-0.096 0.0957,-0.096 0.0879,0 0.0957,0.048 0.1113,0.199 L 0.4385,3.347 C 0.4619,3.563 0.4219,3.563 0.2227,3.563 h -4.0245 c -0.1601,0 -0.2392,0 -0.2392,-0.16 0,-0.088 0.0713,-0.088 0.2226,-0.088 0.295,0 0.5186,0 0.5186,-0.143 0,-0.032 0,-0.048 -0.04,-0.192 l -1.0518,-4.215 c -0.0801,-0.311 -0.0957,-0.375 -0.7256,-0.375 -0.1357,0 -0.2226,0 -0.2226,-0.152 0,-0.095 0.0712,-0.095 0.2226,-0.095 h 4.1367 c 0.1836,0 0.1914,0.008 0.2471,0.135 L 0,0"
                     style="fill:#000000;fill-opacity:1;fill-rule:nonzero;stroke:none"
                     id="path2073" /></g></g></g><g
               id="g2075"
               transform="translate(8.46,100.069)"><path
                 d="m 0,0 c 0,0.614 -0.0732,1.055 -0.3301,1.445 -0.1728,0.257 -0.5185,0.48 -0.9648,0.48 -1.294,0 -1.294,-1.523 -1.294,-1.925 0,-0.401 0,-1.891 1.294,-1.891 C 0,-1.891 0,-0.401 0,0 Z m -1.2949,-1.735 c -0.2569,0 -0.5967,0.15 -0.708,0.608 -0.0781,0.33 -0.0781,0.787 -0.0781,1.2 0,0.407 0,0.831 0.083,1.138 0.1171,0.44 0.4746,0.558 0.7031,0.558 0.3017,0 0.5918,-0.184 0.6924,-0.508 0.0888,-0.301 0.0947,-0.703 0.0947,-1.188 0,-0.413 0,-0.826 -0.0732,-1.177 -0.1114,-0.508 -0.4903,-0.631 -0.7139,-0.631"
                 style="fill:#000000;fill-opacity:1;fill-rule:nonzero;stroke:none"
                 id="path2077" /></g><g
               id="g2079"
               transform="translate(26.722,102.208)"><path
                 d="M 0,0 H -17.008"
                 style="fill:none;stroke:#000000;stroke-width:0.319;stroke-linecap:butt;stroke-linejoin:miter;stroke-miterlimit:10;stroke-dasharray:none;stroke-opacity:1"
                 id="path2081" /></g><g
               id="g2083"
               transform="translate(84.327,120.081)"><path
                 d="m 0,0 c 0.017,0.04 0.04,0.096 0.04,0.112 0,0.008 0,0.087 -0.096,0.087 -0.071,0 -0.086,-0.048 -0.103,-0.095 -0.518,-1.18 -0.813,-1.714 -2.176,-1.714 h -1.163 c -0.112,0 -0.128,0 -0.176,0.008 -0.08,0.008 -0.103,0.016 -0.103,0.08 0,0.024 0,0.04 0.04,0.183 l 0.542,2.176 h 0.789 c 0.677,0 0.677,-0.168 0.677,-0.367 0,-0.055 0,-0.151 -0.056,-0.39 -0.016,-0.04 -0.024,-0.064 -0.024,-0.088 0,-0.04 0.032,-0.088 0.104,-0.088 0.063,0 0.088,0.04 0.119,0.16 l 0.455,1.865 c 0,0.048 -0.04,0.088 -0.095,0.088 -0.073,0 -0.088,-0.048 -0.113,-0.144 -0.167,-0.605 -0.31,-0.789 -1.044,-0.789 h -0.749 l 0.479,1.921 c 0.071,0.279 0.079,0.311 0.429,0.311 H -1.1 c 0.973,0 1.212,-0.232 1.212,-0.885 0,-0.191 0,-0.207 -0.032,-0.422 0,-0.048 -0.008,-0.104 -0.008,-0.144 0,-0.04 0.024,-0.095 0.096,-0.095 0.088,0 0.096,0.047 0.111,0.199 L 0.438,3.348 C 0.463,3.563 0.423,3.563 0.224,3.563 h -4.026 c -0.159,0 -0.238,0 -0.238,-0.16 0,-0.087 0.071,-0.087 0.223,-0.087 0.295,0 0.518,0 0.518,-0.144 0,-0.032 0,-0.047 -0.04,-0.191 l -1.052,-4.216 c -0.08,-0.311 -0.095,-0.375 -0.725,-0.375 -0.136,0 -0.224,0 -0.224,-0.151 0,-0.096 0.072,-0.096 0.224,-0.096 h 4.137 c 0.182,0 0.19,0.008 0.247,0.136 L 0,0"
                 style="fill:#000000;fill-opacity:1;fill-rule:nonzero;stroke:none"
                 id="path2085" /></g><g
               id="g2087"
               transform="translate(85.434,120.142)"><path
                 d="m 0,0 c 0.284,-0.073 0.452,-0.073 0.541,-0.073 0.736,0 1.172,0.503 1.172,0.586 0,0.062 -0.039,0.078 -0.067,0.078 -0.011,0 -0.023,0 -0.045,-0.016 C 1.467,0.524 1.172,0.413 0.759,0.413 c -0.156,0 -0.452,0.011 -0.815,0.15 -0.055,0.028 -0.067,0.028 -0.072,0.028 -0.073,0 -0.073,-0.061 -0.073,-0.15 v -1.646 c 0,-0.095 0,-0.162 0.09,-0.162 0.049,0 0.055,0.012 0.111,0.078 0.24,0.307 0.58,0.352 0.775,0.352 0.335,0 0.486,-0.268 0.514,-0.313 0.1,-0.184 0.134,-0.396 0.134,-0.719 0,-0.168 0,-0.497 -0.168,-0.742 -0.14,-0.201 -0.379,-0.335 -0.652,-0.335 -0.363,0 -0.737,0.201 -0.876,0.569 0.211,-0.017 0.318,0.123 0.318,0.273 0,0.24 -0.207,0.285 -0.279,0.285 -0.011,0 -0.28,0 -0.28,-0.302 0,-0.502 0.458,-1.004 1.127,-1.004 0.715,0 1.339,0.53 1.339,1.233 0,0.631 -0.479,1.211 -1.171,1.211 C 0.535,-0.781 0.245,-0.842 0,-1.055 V 0"
                 style="fill:#000000;fill-opacity:1;fill-rule:nonzero;stroke:none"
                 id="path2089" /></g><g
               id="g2091"
               transform="translate(83.415,102.208)"><path
                 d="M 0,0 V 13.865"
                 style="fill:none;stroke:#000000;stroke-width:0.319;stroke-linecap:butt;stroke-linejoin:miter;stroke-miterlimit:10;stroke-dasharray:none;stroke-opacity:1"
                 id="path2093" /></g><g
               id="g2095"
               transform="translate(133.617,120.885)"><path
                 d="M 0,0 H 0.709 C 0.805,0 0.901,-0.008 0.996,-0.008 H 2.065 V 0.51 h -4.846 v -0.518 h 1.067 c 0.096,0 0.192,0.008 0.287,0.008 h 0.718 V -4.973 H 0 V 0"
                 style="fill:#000000;fill-opacity:1;fill-rule:nonzero;stroke:none"
                 id="path2097" /></g><g
               id="g2099"
               transform="translate(138.491,118.215)"><path
                 d="m 0,0 c 0,0.813 -0.581,1.371 -1.314,1.371 -0.519,0 -0.877,-0.127 -1.251,-0.343 l 0.048,-0.526 c 0.414,0.295 0.812,0.399 1.203,0.399 0.374,0 0.693,-0.319 0.693,-0.909 v -0.343 c -1.195,-0.015 -2.208,-0.35 -2.208,-1.051 0,-0.343 0.216,-0.989 0.909,-0.989 0.112,0 0.861,0.016 1.323,0.375 V -2.303 H 0 Z m -0.621,-1.251 c 0,-0.151 0,-0.351 -0.271,-0.502 -0.231,-0.143 -0.534,-0.152 -0.621,-0.152 -0.383,0 -0.742,0.184 -0.742,0.518 0,0.558 1.291,0.614 1.634,0.63 v -0.494"
                 style="fill:#000000;fill-opacity:1;fill-rule:nonzero;stroke:none"
                 id="path2101" /></g><g
               id="g2103"
               transform="translate(141.876,119.331)"><path
                 d="m 0,0 c -0.415,0.191 -0.741,0.255 -1.147,0.255 -0.2,0 -1.324,0 -1.324,-1.044 0,-0.391 0.231,-0.646 0.43,-0.797 0.248,-0.176 0.423,-0.207 0.861,-0.295 0.287,-0.056 0.749,-0.152 0.749,-0.574 0,-0.55 -0.63,-0.55 -0.749,-0.55 -0.645,0 -1.092,0.295 -1.235,0.391 l -0.096,-0.542 c 0.255,-0.128 0.694,-0.351 1.339,-0.351 0.144,0 0.582,0 0.925,0.255 0.247,0.191 0.383,0.51 0.383,0.853 0,0.438 -0.295,0.709 -0.312,0.733 -0.31,0.279 -0.525,0.327 -0.924,0.398 -0.438,0.088 -0.805,0.168 -0.805,0.559 0,0.494 0.574,0.494 0.677,0.494 0.255,0 0.678,-0.032 1.132,-0.303 L 0,0"
                 style="fill:#000000;fill-opacity:1;fill-rule:nonzero;stroke:none"
                 id="path2105" /></g><g
               id="g2107"
               transform="translate(144.437,118.08)"><path
                 d="M 0,0 1.338,1.371 H 0.622 l -1.619,-1.658 v 3.65 h -0.574 v -5.531 h 0.55 v 1.124 l 0.638,0.661 1.244,-1.785 H 1.514 L 0,0"
                 style="fill:#000000;fill-opacity:1;fill-rule:nonzero;stroke:none"
                 id="path2109" /></g><g
               id="g2111"
               transform="translate(147.959,118.265)"><path
                 d="m 0,0 c 0,0.151 -0.011,0.156 -0.167,0.156 -0.357,-0.351 -0.865,-0.357 -1.094,-0.357 v -0.2 c 0.134,0 0.502,0 0.81,0.155 v -2.845 c 0,-0.184 0,-0.256 -0.559,-0.256 h -0.212 v -0.201 c 0.101,0.006 0.787,0.022 0.993,0.022 0.173,0 0.876,-0.016 0.999,-0.022 v 0.201 H 0.559 C 0,-3.347 0,-3.275 0,-3.091 V 0"
                 style="fill:#000000;fill-opacity:1;fill-rule:nonzero;stroke:none"
                 id="path2113" /></g><g
               id="g2115"
               transform="translate(163.316,101.342)"><path
                 d="m 0,0 c 0.016,0.04 0.04,0.096 0.04,0.112 0,0.008 0,0.088 -0.095,0.088 -0.073,0 -0.088,-0.048 -0.104,-0.096 -0.518,-1.18 -0.813,-1.714 -2.176,-1.714 h -1.164 c -0.111,0 -0.127,0 -0.174,0.008 -0.08,0.008 -0.105,0.016 -0.105,0.08 0,0.024 0,0.04 0.04,0.183 l 0.542,2.176 h 0.789 c 0.678,0 0.678,-0.168 0.678,-0.367 0,-0.055 0,-0.151 -0.056,-0.39 -0.016,-0.04 -0.024,-0.064 -0.024,-0.088 0,-0.039 0.032,-0.087 0.103,-0.087 0.065,0 0.088,0.039 0.12,0.159 l 0.455,1.865 c 0,0.048 -0.04,0.088 -0.096,0.088 -0.071,0 -0.088,-0.048 -0.111,-0.144 C -1.506,1.268 -1.649,1.084 -2.382,1.084 h -0.749 l 0.477,1.921 c 0.072,0.279 0.08,0.311 0.431,0.311 h 1.124 c 0.971,0 1.211,-0.232 1.211,-0.885 0,-0.191 0,-0.207 -0.032,-0.422 0,-0.048 -0.008,-0.104 -0.008,-0.144 0,-0.04 0.024,-0.095 0.095,-0.095 0.088,0 0.096,0.047 0.113,0.199 L 0.439,3.348 C 0.462,3.563 0.423,3.563 0.223,3.563 h -4.024 c -0.16,0 -0.24,0 -0.24,-0.16 0,-0.087 0.073,-0.087 0.224,-0.087 0.295,0 0.518,0 0.518,-0.144 0,-0.032 0,-0.047 -0.04,-0.191 l -1.052,-4.216 c -0.08,-0.311 -0.096,-0.375 -0.726,-0.375 -0.135,0 -0.222,0 -0.222,-0.151 0,-0.096 0.071,-0.096 0.222,-0.096 h 4.137 c 0.184,0 0.191,0.008 0.247,0.136 L 0,0"
                 style="fill:#000000;fill-opacity:1;fill-rule:nonzero;stroke:none"
                 id="path2117" /></g><g
               id="g2119"
               transform="translate(165.426,101.838)"><path
                 d="m 0,0 c 0,0.151 -0.011,0.156 -0.167,0.156 -0.358,-0.351 -0.865,-0.357 -1.094,-0.357 v -0.2 c 0.134,0 0.502,0 0.809,0.156 v -2.846 c 0,-0.184 0,-0.256 -0.558,-0.256 h -0.212 v -0.201 c 0.101,0.006 0.786,0.022 0.993,0.022 0.173,0 0.876,-0.016 0.998,-0.022 v 0.201 H 0.557 C 0,-3.347 0,-3.275 0,-3.091 V 0"
                 style="fill:#000000;fill-opacity:1;fill-rule:nonzero;stroke:none"
                 id="path2121" /></g><g
               id="g2123"
               transform="translate(140.109,102.208)"><path
                 d="M 0,0 H 17.008"
                 style="fill:none;stroke:#000000;stroke-width:0.319;stroke-linecap:butt;stroke-linejoin:miter;stroke-miterlimit:10;stroke-dasharray:none;stroke-opacity:1"
                 id="path2125" /></g><g
               id="g2127"
               transform="translate(110.407,120.081)"><path
                 d="m 0,0 c 0.016,0.04 0.039,0.096 0.039,0.112 0,0.008 0,0.087 -0.095,0.087 -0.072,0 -0.087,-0.048 -0.104,-0.095 -0.518,-1.18 -0.812,-1.714 -2.176,-1.714 h -1.163 c -0.112,0 -0.128,0 -0.176,0.008 -0.079,0.008 -0.103,0.016 -0.103,0.08 0,0.024 0,0.04 0.04,0.183 l 0.542,2.176 h 0.789 c 0.677,0 0.677,-0.168 0.677,-0.367 0,-0.055 0,-0.151 -0.056,-0.39 -0.016,-0.04 -0.023,-0.064 -0.023,-0.088 0,-0.04 0.032,-0.088 0.103,-0.088 0.064,0 0.088,0.04 0.119,0.16 l 0.455,1.865 c 0,0.048 -0.04,0.088 -0.095,0.088 C -1.3,2.017 -1.315,1.969 -1.34,1.873 -1.507,1.268 -1.65,1.084 -2.384,1.084 h -0.749 l 0.479,1.921 c 0.071,0.279 0.079,0.311 0.43,0.311 H -1.1 c 0.972,0 1.212,-0.232 1.212,-0.885 0,-0.191 0,-0.207 -0.033,-0.422 0,-0.048 -0.007,-0.104 -0.007,-0.144 0,-0.04 0.023,-0.095 0.095,-0.095 0.088,0 0.096,0.047 0.112,0.199 L 0.438,3.348 C 0.462,3.563 0.422,3.563 0.223,3.563 h -4.025 c -0.16,0 -0.239,0 -0.239,-0.16 0,-0.087 0.072,-0.087 0.223,-0.087 0.295,0 0.518,0 0.518,-0.144 0,-0.032 0,-0.047 -0.04,-0.191 l -1.051,-4.216 c -0.08,-0.311 -0.096,-0.375 -0.726,-0.375 -0.136,0 -0.224,0 -0.224,-0.151 0,-0.096 0.073,-0.096 0.224,-0.096 h 4.137 c 0.182,0 0.191,0.008 0.247,0.136 L 0,0"
                 style="fill:#000000;fill-opacity:1;fill-rule:nonzero;stroke:none"
                 id="path2129" /></g><g
               id="g2131"
               transform="translate(112.979,118.691)"><path
                 d="m 0,0 c 0,-1.383 -0.686,-1.596 -1.021,-1.596 -0.122,0 -0.418,0.012 -0.568,0.184 0.228,0.023 0.245,0.213 0.245,0.263 0,0.139 -0.095,0.262 -0.263,0.262 -0.167,0 -0.268,-0.112 -0.268,-0.273 0,-0.38 0.319,-0.614 0.86,-0.614 0.798,0 1.551,0.753 1.551,1.947 0,1.384 -0.614,1.869 -1.267,1.869 -0.184,0 -0.568,-0.028 -0.887,-0.34 C -1.807,1.518 -2.031,1.3 -2.031,0.798 c 0,-0.709 0.564,-1.233 1.217,-1.233 0.446,0 0.686,0.296 0.814,0.547 z m -0.787,-0.279 c -0.217,0 -0.423,0.072 -0.58,0.329 -0.128,0.207 -0.128,0.441 -0.128,0.748 0,0.324 0,0.547 0.162,0.77 0.133,0.195 0.318,0.312 0.608,0.312 0.284,0 0.452,-0.178 0.541,-0.323 0.15,-0.235 0.168,-0.625 0.168,-0.821 0,-0.725 -0.419,-1.015 -0.771,-1.015"
                 style="fill:#000000;fill-opacity:1;fill-rule:nonzero;stroke:none"
                 id="path2133" /></g><g
               id="g2135"
               transform="translate(120.152,92.684)"><path
                 d="M 0,0 -9.01,23.389"
                 style="fill:none;stroke:#000000;stroke-width:0.319;stroke-linecap:butt;stroke-linejoin:miter;stroke-miterlimit:10;stroke-dasharray:none;stroke-opacity:1"
                 id="path2137" /></g><g
               id="g2139"
               transform="translate(122.879,120.081)"><path
                 d="m 0,0 c 0.016,0.04 0.04,0.096 0.04,0.112 0,0.008 0,0.087 -0.096,0.087 -0.072,0 -0.088,-0.048 -0.103,-0.095 -0.519,-1.18 -0.814,-1.714 -2.176,-1.714 h -1.164 c -0.111,0 -0.128,0 -0.176,0.008 -0.079,0.008 -0.103,0.016 -0.103,0.08 0,0.024 0,0.04 0.04,0.183 l 0.542,2.176 h 0.789 c 0.677,0 0.677,-0.168 0.677,-0.367 0,-0.055 0,-0.151 -0.055,-0.39 -0.017,-0.04 -0.025,-0.064 -0.025,-0.088 0,-0.04 0.033,-0.088 0.104,-0.088 0.064,0 0.088,0.04 0.12,0.16 l 0.454,1.865 c 0,0.048 -0.04,0.088 -0.096,0.088 -0.071,0 -0.088,-0.048 -0.111,-0.144 C -1.507,1.268 -1.65,1.084 -2.383,1.084 h -0.75 l 0.479,1.921 c 0.072,0.279 0.08,0.311 0.43,0.311 H -1.1 c 0.972,0 1.211,-0.232 1.211,-0.885 0,-0.191 0,-0.207 -0.032,-0.422 0,-0.048 -0.008,-0.104 -0.008,-0.144 0,-0.04 0.025,-0.095 0.096,-0.095 0.088,0 0.096,0.047 0.111,0.199 l 0.16,1.379 C 0.462,3.563 0.422,3.563 0.223,3.563 h -4.025 c -0.159,0 -0.239,0 -0.239,-0.16 0,-0.087 0.071,-0.087 0.224,-0.087 0.294,0 0.517,0 0.517,-0.144 0,-0.032 0,-0.047 -0.04,-0.191 l -1.052,-4.216 c -0.08,-0.311 -0.095,-0.375 -0.725,-0.375 -0.136,0 -0.223,0 -0.223,-0.151 0,-0.096 0.071,-0.096 0.223,-0.096 h 4.136 c 0.184,0 0.192,0.008 0.248,0.136 L 0,0"
                 style="fill:#000000;fill-opacity:1;fill-rule:nonzero;stroke:none"
                 id="path2141" /></g><g
               id="g2143"
               transform="translate(125.101,119.043)"><path
                 d="m 0,0 c 0.435,0.212 0.713,0.474 0.713,0.859 0,0.541 -0.563,0.831 -1.104,0.831 -0.613,0 -1.116,-0.401 -1.116,-0.931 0,-0.262 0.123,-0.452 0.223,-0.564 0.101,-0.117 0.14,-0.139 0.469,-0.335 -0.312,-0.133 -0.865,-0.435 -0.865,-1.021 0,-0.619 0.642,-0.964 1.278,-0.964 0.708,0 1.288,0.451 1.288,1.054 0,0.368 -0.217,0.68 -0.541,0.87 C 0.273,-0.156 0.078,-0.044 0,0 Z m -0.91,0.53 c -0.145,0.084 -0.301,0.234 -0.301,0.441 0,0.351 0.407,0.558 0.809,0.558 0.435,0 0.82,-0.274 0.82,-0.67 0,-0.496 -0.581,-0.747 -0.591,-0.747 -0.012,0 -0.023,0.005 -0.062,0.028 z m 0.274,-0.776 0.764,-0.44 c 0.145,-0.084 0.424,-0.251 0.424,-0.581 0,-0.418 -0.464,-0.68 -0.943,-0.68 -0.514,0 -0.954,0.329 -0.954,0.786 0,0.413 0.307,0.731 0.709,0.915"
                 style="fill:#000000;fill-opacity:1;fill-rule:nonzero;stroke:none"
                 id="path2145" /></g><g
               id="g2147"
               transform="translate(125.369,94.27)"><path
                 d="M 0,0 -2.845,21.802"
                 style="fill:none;stroke:#000000;stroke-width:0.319;stroke-linecap:butt;stroke-linejoin:miter;stroke-miterlimit:10;stroke-dasharray:none;stroke-opacity:1"
                 id="path2149" /></g><g
               id="g2151"><g
                 id="g2153"
                 clip-path="url(#clipPath2157)"><g
                   id="g2159"
                   transform="translate(5.3398,86.602)"><path
                     d="m 0,0 c 0.0156,0.04 0.04,0.096 0.04,0.111 0,0.009 0,0.088 -0.0957,0.088 -0.0722,0 -0.0878,-0.048 -0.1045,-0.095 -0.5175,-1.18 -0.8124,-1.714 -2.1757,-1.714 H -3.499 c -0.1114,0 -0.1279,0 -0.1758,0.008 -0.0791,0.008 -0.1035,0.016 -0.1035,0.08 0,0.024 0,0.04 0.04,0.183 l 0.542,2.176 h 0.7891 c 0.6777,0 0.6777,-0.168 0.6777,-0.367 0,-0.055 0,-0.151 -0.0556,-0.39 -0.0167,-0.04 -0.0245,-0.064 -0.0245,-0.088 0,-0.04 0.0323,-0.088 0.1035,-0.088 0.0635,0 0.0879,0.04 0.1202,0.16 l 0.4541,1.865 c 0,0.048 -0.0401,0.088 -0.0957,0.088 -0.0723,0 -0.0879,-0.048 -0.1114,-0.144 C -1.5068,1.267 -1.6504,1.084 -2.3838,1.084 h -0.749 l 0.4785,1.921 c 0.0713,0.279 0.0801,0.31 0.4307,0.31 h 1.123 c 0.9727,0 1.2119,-0.23 1.2119,-0.884 0,-0.191 0,-0.207 -0.0322,-0.423 0,-0.047 -0.0078,-0.103 -0.0078,-0.143 0,-0.04 0.0244,-0.095 0.0957,-0.095 0.0879,0 0.0957,0.047 0.1113,0.199 L 0.4385,3.347 C 0.4619,3.563 0.4219,3.563 0.2227,3.563 h -4.0245 c -0.1601,0 -0.2392,0 -0.2392,-0.16 0,-0.088 0.0713,-0.088 0.2226,-0.088 0.295,0 0.5186,0 0.5186,-0.143 0,-0.032 0,-0.048 -0.04,-0.191 l -1.0518,-4.216 c -0.0801,-0.311 -0.0957,-0.375 -0.7256,-0.375 -0.1357,0 -0.2226,0 -0.2226,-0.151 0,-0.096 0.0712,-0.096 0.2226,-0.096 h 4.1367 c 0.1836,0 0.1914,0.008 0.2471,0.135 L 0,0"
                     style="fill:#000000;fill-opacity:1;fill-rule:nonzero;stroke:none"
                     id="path2161" /></g></g></g><g
               id="g2163"
               transform="translate(8.5654,86.919)"><path
                 d="m 0,0 c 0.0557,0.067 0.0557,0.078 0.0557,0.223 h -1.4619 c -0.2227,0 -0.2842,0.006 -0.4854,0.023 -0.29,0.022 -0.3008,0.061 -0.3174,0.156 h -0.1894 l -0.1954,-1.194 h 0.1895 c 0.0107,0.084 0.0664,0.452 0.1562,0.507 0.044,0.034 0.4961,0.034 0.5801,0.034 h 1.2158 c -0.1777,-0.234 -0.4628,-0.58 -0.58,-0.736 -0.7305,-0.96 -0.7979,-1.847 -0.7979,-2.176 0,-0.062 0,-0.318 0.2627,-0.318 0.2676,0 0.2676,0.251 0.2676,0.323 v 0.223 c 0,1.083 0.2226,1.58 0.4629,1.881 L 0,0"
                 style="fill:#000000;fill-opacity:1;fill-rule:nonzero;stroke:none"
                 id="path2165" /></g><g
               id="g2167"
               transform="translate(21.053,87.468)"><path
                 d="M 0,0 H -11.339"
                 style="fill:none;stroke:#000000;stroke-width:0.319;stroke-linecap:butt;stroke-linejoin:miter;stroke-miterlimit:10;stroke-dasharray:none;stroke-opacity:1"
                 id="path2169" /></g><g
               id="g2171"
               transform="translate(112.22,83.798)"><path
                 d="m 0,0 c 0.015,0.04 0.04,0.096 0.04,0.112 0,0.008 0,0.087 -0.096,0.087 -0.072,0 -0.088,-0.048 -0.103,-0.095 -0.519,-1.18 -0.814,-1.714 -2.176,-1.714 h -1.164 c -0.112,0 -0.128,0 -0.176,0.008 -0.079,0.008 -0.104,0.016 -0.104,0.08 0,0.024 0,0.04 0.04,0.183 l 0.542,2.176 h 0.79 c 0.677,0 0.677,-0.168 0.677,-0.367 0,-0.055 0,-0.151 -0.055,-0.39 -0.017,-0.04 -0.025,-0.064 -0.025,-0.088 0,-0.04 0.032,-0.088 0.104,-0.088 0.064,0 0.088,0.04 0.12,0.16 l 0.454,1.865 c 0,0.048 -0.04,0.088 -0.096,0.088 -0.071,0 -0.088,-0.048 -0.111,-0.144 C -1.507,1.268 -1.651,1.084 -2.383,1.084 h -0.75 l 0.478,1.921 c 0.073,0.279 0.081,0.311 0.431,0.311 H -1.1 c 0.972,0 1.211,-0.231 1.211,-0.885 0,-0.191 0,-0.207 -0.032,-0.422 0,-0.048 -0.008,-0.104 -0.008,-0.144 0,-0.04 0.024,-0.095 0.096,-0.095 0.088,0 0.095,0.047 0.111,0.199 l 0.16,1.379 C 0.462,3.563 0.422,3.563 0.222,3.563 h -4.024 c -0.159,0 -0.239,0 -0.239,-0.16 0,-0.087 0.071,-0.087 0.223,-0.087 0.294,0 0.518,0 0.518,-0.144 0,-0.032 0,-0.047 -0.04,-0.191 l -1.052,-4.216 c -0.08,-0.311 -0.096,-0.375 -0.725,-0.375 -0.136,0 -0.223,0 -0.223,-0.151 0,-0.096 0.071,-0.096 0.223,-0.096 h 4.136 c 0.184,0 0.192,0.008 0.247,0.136 L 0,0"
                 style="fill:#000000;fill-opacity:1;fill-rule:nonzero;stroke:none"
                 id="path2173" /></g><g
               id="g2175"
               transform="translate(114.33,84.293)"><path
                 d="m 0,0 c 0,0.15 -0.012,0.156 -0.168,0.156 -0.356,-0.351 -0.864,-0.357 -1.093,-0.357 v -0.201 c 0.134,0 0.502,0 0.809,0.156 v -2.845 c 0,-0.184 0,-0.257 -0.558,-0.257 h -0.212 v -0.2 c 0.1,0.005 0.787,0.022 0.993,0.022 0.173,0 0.876,-0.017 0.999,-0.022 v 0.2 H 0.558 C 0,-3.348 0,-3.275 0,-3.091 V 0"
                 style="fill:#000000;fill-opacity:1;fill-rule:nonzero;stroke:none"
                 id="path2177" /></g><g
               id="g2179"
               transform="translate(117.507,84.293)"><path
                 d="m 0,0 c 0,0.15 -0.011,0.156 -0.167,0.156 -0.358,-0.351 -0.865,-0.357 -1.094,-0.357 v -0.201 c 0.134,0 0.502,0 0.809,0.156 v -2.845 c 0,-0.184 0,-0.257 -0.558,-0.257 h -0.212 v -0.2 c 0.101,0.005 0.787,0.022 0.993,0.022 0.173,0 0.876,-0.017 0.999,-0.022 v 0.2 H 0.557 C 0,-3.348 0,-3.275 0,-3.091 V 0"
                 style="fill:#000000;fill-opacity:1;fill-rule:nonzero;stroke:none"
                 id="path2181" /></g><g
               id="g2183"
               transform="translate(127.637,86.333)"><path
                 d="M 0,0 -7.466,-1.148"
                 style="fill:none;stroke:#000000;stroke-width:0.319;stroke-linecap:butt;stroke-linejoin:miter;stroke-miterlimit:10;stroke-dasharray:none;stroke-opacity:1"
                 id="path2185" /></g><g
               id="g2187"
               transform="translate(163.316,86.602)"><path
                 d="m 0,0 c 0.016,0.04 0.04,0.096 0.04,0.111 0,0.009 0,0.088 -0.095,0.088 -0.073,0 -0.088,-0.048 -0.104,-0.095 -0.518,-1.18 -0.813,-1.714 -2.176,-1.714 h -1.164 c -0.111,0 -0.127,0 -0.174,0.008 -0.08,0.008 -0.105,0.016 -0.105,0.08 0,0.024 0,0.04 0.04,0.183 l 0.542,2.176 h 0.789 c 0.678,0 0.678,-0.168 0.678,-0.367 0,-0.055 0,-0.151 -0.056,-0.39 -0.016,-0.04 -0.024,-0.064 -0.024,-0.088 0,-0.04 0.032,-0.088 0.103,-0.088 0.065,0 0.088,0.04 0.12,0.16 l 0.455,1.865 c 0,0.048 -0.04,0.088 -0.096,0.088 -0.071,0 -0.088,-0.048 -0.111,-0.144 C -1.506,1.267 -1.649,1.084 -2.382,1.084 h -0.749 l 0.477,1.921 c 0.072,0.279 0.08,0.31 0.431,0.31 h 1.124 c 0.971,0 1.211,-0.23 1.211,-0.884 0,-0.191 0,-0.207 -0.032,-0.423 0,-0.047 -0.008,-0.103 -0.008,-0.143 0,-0.04 0.024,-0.095 0.095,-0.095 0.088,0 0.096,0.047 0.113,0.199 L 0.439,3.347 C 0.462,3.563 0.423,3.563 0.223,3.563 h -4.024 c -0.16,0 -0.24,0 -0.24,-0.16 0,-0.088 0.073,-0.088 0.224,-0.088 0.295,0 0.518,0 0.518,-0.143 0,-0.032 0,-0.048 -0.04,-0.191 l -1.052,-4.216 c -0.08,-0.311 -0.096,-0.375 -0.726,-0.375 -0.135,0 -0.222,0 -0.222,-0.151 0,-0.096 0.071,-0.096 0.222,-0.096 h 4.137 c 0.184,0 0.191,0.008 0.247,0.135 L 0,0"
                 style="fill:#000000;fill-opacity:1;fill-rule:nonzero;stroke:none"
                 id="path2189" /></g><g
               id="g2191"
               transform="translate(165.426,87.098)"><path
                 d="m 0,0 c 0,0.15 -0.011,0.156 -0.167,0.156 -0.358,-0.351 -0.865,-0.357 -1.094,-0.357 v -0.201 c 0.134,0 0.502,0 0.809,0.156 v -2.845 c 0,-0.184 0,-0.257 -0.558,-0.257 h -0.212 v -0.2 c 0.101,0.005 0.786,0.022 0.993,0.022 0.173,0 0.876,-0.017 0.998,-0.022 v 0.2 H 0.557 C 0,-3.348 0,-3.275 0,-3.091 V 0"
                 style="fill:#000000;fill-opacity:1;fill-rule:nonzero;stroke:none"
                 id="path2193" /></g><g
               id="g2195"
               transform="translate(169.612,85.329)"><path
                 d="m 0,0 c 0,0.614 -0.072,1.054 -0.329,1.445 -0.173,0.257 -0.518,0.48 -0.965,0.48 -1.294,0 -1.294,-1.524 -1.294,-1.925 0,-0.402 0,-1.892 1.294,-1.892 C 0,-1.892 0,-0.402 0,0 Z m -1.294,-1.735 c -0.256,0 -0.596,0.151 -0.708,0.608 -0.078,0.329 -0.078,0.787 -0.078,1.199 0,0.407 0,0.832 0.083,1.138 0.117,0.441 0.475,0.559 0.703,0.559 0.302,0 0.592,-0.185 0.693,-0.508 0.089,-0.302 0.094,-0.703 0.094,-1.189 0,-0.412 0,-0.825 -0.073,-1.176 -0.111,-0.508 -0.49,-0.631 -0.714,-0.631"
                 style="fill:#000000;fill-opacity:1;fill-rule:nonzero;stroke:none"
                 id="path2197" /></g><g
               id="g2199"
               transform="translate(132.172,87.468)"><path
                 d="M 0,0 H 24.945"
                 style="fill:none;stroke:#000000;stroke-width:0.319;stroke-linecap:butt;stroke-linejoin:miter;stroke-miterlimit:10;stroke-dasharray:none;stroke-opacity:1"
                 id="path2201" /></g><g
               id="g2203"
               transform="translate(38.974,33.908)"><path
                 d="m 0,0 c 0.017,0.04 0.04,0.096 0.04,0.112 0,0.008 0,0.088 -0.096,0.088 -0.071,0 -0.087,-0.048 -0.103,-0.096 -0.518,-1.18 -0.813,-1.714 -2.176,-1.714 h -1.164 c -0.111,0 -0.127,0 -0.175,0.008 -0.08,0.008 -0.103,0.016 -0.103,0.08 0,0.024 0,0.04 0.04,0.183 l 0.542,2.176 h 0.789 c 0.677,0 0.677,-0.168 0.677,-0.367 0,-0.055 0,-0.151 -0.056,-0.39 -0.016,-0.04 -0.024,-0.064 -0.024,-0.088 0,-0.039 0.032,-0.087 0.104,-0.087 0.063,0 0.088,0.039 0.119,0.159 l 0.454,1.865 c 0,0.048 -0.039,0.088 -0.095,0.088 -0.072,0 -0.087,-0.048 -0.112,-0.144 -0.167,-0.605 -0.31,-0.789 -1.044,-0.789 h -0.749 l 0.479,1.921 c 0.071,0.279 0.079,0.311 0.429,0.311 H -1.1 c 0.973,0 1.212,-0.232 1.212,-0.885 0,-0.191 0,-0.207 -0.032,-0.422 0,-0.048 -0.008,-0.104 -0.008,-0.144 0,-0.04 0.024,-0.095 0.096,-0.095 0.087,0 0.096,0.047 0.111,0.199 l 0.16,1.379 C 0.463,3.563 0.423,3.563 0.224,3.563 h -4.026 c -0.159,0 -0.239,0 -0.239,-0.16 0,-0.087 0.072,-0.087 0.224,-0.087 0.295,0 0.518,0 0.518,-0.144 0,-0.031 0,-0.047 -0.04,-0.191 l -1.053,-4.216 c -0.079,-0.311 -0.095,-0.375 -0.724,-0.375 -0.136,0 -0.224,0 -0.224,-0.151 0,-0.096 0.073,-0.096 0.224,-0.096 h 4.136 c 0.183,0 0.191,0.008 0.247,0.136 L 0,0"
                 style="fill:#000000;fill-opacity:1;fill-rule:nonzero;stroke:none"
                 id="path2205" /></g><g
               id="g2207"
               transform="translate(40.051,32.68)"><path
                 d="M 0,0 C 0,0.458 0.039,0.871 0.251,1.211 0.441,1.512 0.742,1.718 1.1,1.718 1.267,1.718 1.49,1.674 1.602,1.523 1.462,1.512 1.345,1.417 1.345,1.255 c 0,-0.139 0.094,-0.262 0.262,-0.262 0.167,0 0.268,0.111 0.268,0.274 0,0.323 -0.234,0.613 -0.787,0.613 -0.803,0 -1.623,-0.736 -1.623,-1.936 0,-1.444 0.681,-1.88 1.294,-1.88 0.68,0 1.272,0.519 1.272,1.25 0,0.708 -0.563,1.233 -1.216,1.233 C 0.368,0.547 0.123,0.251 0,0 Z m 0.759,-1.757 c -0.279,0 -0.496,0.161 -0.613,0.407 -0.084,0.167 -0.128,0.446 -0.128,0.781 0,0.541 0.323,0.96 0.769,0.96 0.257,0 0.43,-0.101 0.569,-0.307 0.134,-0.212 0.139,-0.447 0.139,-0.77 0,-0.318 0,-0.553 -0.15,-0.77 C 1.211,-1.651 1.032,-1.757 0.759,-1.757"
                 style="fill:#000000;fill-opacity:1;fill-rule:nonzero;stroke:none"
                 id="path2209" /></g><g
               id="g2211"><g
                 id="g2213"
                 clip-path="url(#clipPath2217)"><g
                   id="g2219"
                   transform="translate(5.3398,67.326)"><path
                     d="m 0,0 c 0.0156,0.04 0.04,0.095 0.04,0.111 0,0.008 0,0.088 -0.0957,0.088 -0.0722,0 -0.0878,-0.048 -0.1045,-0.095 -0.5175,-1.18 -0.8124,-1.714 -2.1757,-1.714 H -3.499 c -0.1114,0 -0.1279,0 -0.1758,0.008 -0.0791,0.008 -0.1035,0.016 -0.1035,0.08 0,0.024 0,0.04 0.04,0.183 l 0.542,2.176 h 0.7891 c 0.6777,0 0.6777,-0.167 0.6777,-0.367 0,-0.056 0,-0.151 -0.0556,-0.39 -0.0167,-0.04 -0.0245,-0.064 -0.0245,-0.088 0,-0.04 0.0323,-0.088 0.1035,-0.088 0.0635,0 0.0879,0.04 0.1202,0.16 l 0.4541,1.865 c 0,0.048 -0.0401,0.087 -0.0957,0.087 -0.0723,0 -0.0879,-0.048 -0.1114,-0.143 C -1.5068,1.267 -1.6504,1.084 -2.3838,1.084 h -0.749 l 0.4785,1.92 c 0.0713,0.28 0.0801,0.312 0.4307,0.312 h 1.123 c 0.9727,0 1.2119,-0.231 1.2119,-0.885 0,-0.192 0,-0.207 -0.0322,-0.423 0,-0.047 -0.0078,-0.103 -0.0078,-0.143 0,-0.04 0.0244,-0.096 0.0957,-0.096 0.0879,0 0.0957,0.048 0.1113,0.199 L 0.4385,3.347 C 0.4619,3.563 0.4219,3.563 0.2227,3.563 h -4.0245 c -0.1601,0 -0.2392,0 -0.2392,-0.16 0,-0.087 0.0713,-0.087 0.2226,-0.087 0.295,0 0.5186,0 0.5186,-0.144 0,-0.032 0,-0.048 -0.04,-0.191 l -1.0518,-4.216 c -0.0801,-0.311 -0.0957,-0.375 -0.7256,-0.375 -0.1357,0 -0.2226,0 -0.2226,-0.152 0,-0.095 0.0712,-0.095 0.2226,-0.095 h 4.1367 c 0.1836,0 0.1914,0.008 0.2471,0.135 L 0,0"
                     style="fill:#000000;fill-opacity:1;fill-rule:nonzero;stroke:none"
                     id="path2221" /></g></g></g><g
               id="g2223"
               transform="translate(8.5322,65.189)"><path
                 d="m 0,0 v 0.201 h -0.6191 v 2.488 c 0,0.117 0,0.156 -0.1231,0.156 -0.0674,0 -0.0889,0 -0.1455,-0.078 L -2.7344,0.201 V 0 h 1.6406 v -0.457 c 0,-0.19 0,-0.257 -0.4521,-0.257 h -0.1504 v -0.201 c 0.2793,0.005 0.6357,0.017 0.8369,0.017 0.2061,0 0.5635,-0.012 0.8428,-0.017 v 0.201 H -0.168 c -0.4511,0 -0.4511,0.067 -0.4511,0.257 V 0 Z M -1.0547,2.243 V 0.201 h -1.4727 l 1.4727,2.042"
                 style="fill:#000000;fill-opacity:1;fill-rule:nonzero;stroke:none"
                 id="path2225" /></g><g
               id="g2227"
               transform="translate(21.053,68.192)"><path
                 d="M 0,0 H -11.339"
                 style="fill:none;stroke:#000000;stroke-width:0.319;stroke-linecap:butt;stroke-linejoin:miter;stroke-miterlimit:10;stroke-dasharray:none;stroke-opacity:1"
                 id="path2229" /></g><g
               id="g2231"
               transform="translate(20.231,7.5)"><path
                 d="M 0,0 H 0.71 C 0.805,0 0.9,-0.008 0.996,-0.008 H 2.065 V 0.51 h -4.846 v -0.518 h 1.067 c 0.096,0 0.192,0.008 0.287,0.008 h 0.718 V -4.974 H 0 V 0"
                 style="fill:#000000;fill-opacity:1;fill-rule:nonzero;stroke:none"
                 id="path2233" /></g><g
               id="g2235"
               transform="translate(25.106,4.83)"><path
                 d="m 0,0 c 0,0.813 -0.582,1.371 -1.315,1.371 -0.518,0 -0.877,-0.128 -1.251,-0.343 l 0.048,-0.526 c 0.414,0.295 0.812,0.398 1.203,0.398 0.375,0 0.693,-0.318 0.693,-0.908 v -0.343 c -1.195,-0.016 -2.208,-0.351 -2.208,-1.052 0,-0.343 0.216,-0.988 0.909,-0.988 0.111,0 0.861,0.016 1.323,0.374 V -2.304 H 0 Z m -0.622,-1.251 c 0,-0.152 0,-0.351 -0.271,-0.502 -0.231,-0.144 -0.534,-0.152 -0.622,-0.152 -0.382,0 -0.741,0.183 -0.741,0.518 0,0.558 1.291,0.614 1.634,0.63 v -0.494"
                 style="fill:#000000;fill-opacity:1;fill-rule:nonzero;stroke:none"
                 id="path2237" /></g><g
               id="g2239"
               transform="translate(28.49,5.946)"><path
                 d="m 0,0 c -0.414,0.191 -0.741,0.255 -1.147,0.255 -0.2,0 -1.324,0 -1.324,-1.044 0,-0.391 0.232,-0.646 0.431,-0.797 0.247,-0.176 0.422,-0.208 0.86,-0.295 0.287,-0.056 0.749,-0.152 0.749,-0.574 0,-0.55 -0.629,-0.55 -0.749,-0.55 -0.645,0 -1.091,0.295 -1.235,0.39 l -0.096,-0.541 c 0.255,-0.128 0.694,-0.351 1.339,-0.351 0.144,0 0.582,0 0.925,0.255 0.247,0.191 0.383,0.51 0.383,0.852 0,0.439 -0.295,0.71 -0.312,0.734 -0.31,0.279 -0.525,0.327 -0.924,0.398 -0.438,0.088 -0.805,0.168 -0.805,0.558 0,0.494 0.574,0.494 0.677,0.494 0.255,0 0.678,-0.031 1.132,-0.302 L 0,0"
                 style="fill:#000000;fill-opacity:1;fill-rule:nonzero;stroke:none"
                 id="path2241" /></g><g
               id="g2243"
               transform="translate(31.051,4.694)"><path
                 d="M 0,0 1.339,1.371 H 0.622 l -1.618,-1.657 v 3.65 H -1.57 v -5.532 h 0.55 v 1.124 l 0.637,0.662 1.244,-1.786 H 1.515 L 0,0"
                 style="fill:#000000;fill-opacity:1;fill-rule:nonzero;stroke:none"
                 id="path2245" /></g><g
               id="g2247"
               transform="translate(35.522,2.347)"><path
                 d="M 0,0 H -0.19 C -0.207,-0.123 -0.263,-0.452 -0.335,-0.508 -0.38,-0.541 -0.81,-0.541 -0.888,-0.541 h -1.026 c 0.586,0.518 0.781,0.674 1.116,0.937 C -0.385,0.725 0,1.071 0,1.601 c 0,0.675 -0.592,1.088 -1.306,1.088 -0.692,0 -1.16,-0.486 -1.16,-0.999 0,-0.285 0.239,-0.312 0.295,-0.312 0.134,0 0.296,0.095 0.296,0.295 0,0.101 -0.039,0.296 -0.329,0.296 0.173,0.396 0.553,0.519 0.814,0.519 0.558,0 0.849,-0.435 0.849,-0.887 0,-0.486 -0.347,-0.87 -0.524,-1.072 L -2.41,-0.798 c -0.056,-0.051 -0.056,-0.061 -0.056,-0.218 h 2.298 L 0,0"
                 style="fill:#000000;fill-opacity:1;fill-rule:nonzero;stroke:none"
                 id="path2249" /></g><g
               id="g2251"><g
                 id="g2253"
                 clip-path="url(#clipPath2257)"><g
                   id="g2259"
                   transform="translate(5.3398,10.633)"><path
                     d="m 0,0 c 0.0156,0.04 0.04,0.096 0.04,0.112 0,0.007 0,0.087 -0.0957,0.087 -0.0722,0 -0.0878,-0.047 -0.1045,-0.095 -0.5175,-1.18 -0.8124,-1.714 -2.1757,-1.714 H -3.499 c -0.1114,0 -0.1279,0 -0.1758,0.008 -0.0791,0.008 -0.1035,0.016 -0.1035,0.08 0,0.024 0,0.04 0.04,0.183 l 0.542,2.176 h 0.7891 c 0.6777,0 0.6777,-0.167 0.6777,-0.367 0,-0.056 0,-0.151 -0.0556,-0.39 -0.0167,-0.04 -0.0245,-0.064 -0.0245,-0.088 0,-0.04 0.0323,-0.087 0.1035,-0.087 0.0635,0 0.0879,0.039 0.1202,0.159 l 0.4541,1.865 c 0,0.048 -0.0401,0.087 -0.0957,0.087 -0.0723,0 -0.0879,-0.047 -0.1114,-0.143 C -1.5068,1.267 -1.6504,1.084 -2.3838,1.084 h -0.749 l 0.4785,1.921 c 0.0713,0.279 0.0801,0.311 0.4307,0.311 h 1.123 c 0.9727,0 1.2119,-0.232 1.2119,-0.885 0,-0.191 0,-0.207 -0.0322,-0.422 0,-0.048 -0.0078,-0.104 -0.0078,-0.144 0,-0.04 0.0244,-0.096 0.0957,-0.096 0.0879,0 0.0957,0.048 0.1113,0.2 L 0.4385,3.347 C 0.4619,3.563 0.4219,3.563 0.2227,3.563 h -4.0245 c -0.1601,0 -0.2392,0 -0.2392,-0.159 0,-0.088 0.0713,-0.088 0.2226,-0.088 0.295,0 0.5186,0 0.5186,-0.144 0,-0.032 0,-0.048 -0.04,-0.191 l -1.0518,-4.216 c -0.0801,-0.311 -0.0957,-0.375 -0.7256,-0.375 -0.1357,0 -0.2226,0 -0.2226,-0.151 0,-0.096 0.0712,-0.096 0.2226,-0.096 h 4.1367 c 0.1836,0 0.1914,0.008 0.2471,0.136 L 0,0"
                     style="fill:#000000;fill-opacity:1;fill-rule:nonzero;stroke:none"
                     id="path2261" /></g></g></g><g
               id="g2263"
               transform="translate(8.3984,8.596)"><path
                 d="M 0,0 H -0.1904 C -0.207,-0.122 -0.2627,-0.452 -0.335,-0.508 -0.3799,-0.541 -0.8096,-0.541 -0.8877,-0.541 h -1.0264 c 0.586,0.519 0.7813,0.675 1.1162,0.938 C -0.3857,0.726 0,1.071 0,1.602 0,2.277 -0.5918,2.69 -1.3057,2.69 c -0.6923,0 -1.1601,-0.486 -1.1601,-0.999 0,-0.285 0.2392,-0.313 0.2949,-0.313 0.1338,0 0.2959,0.095 0.2959,0.296 0,0.101 -0.0391,0.296 -0.3291,0.296 0.1729,0.396 0.5527,0.518 0.8144,0.518 0.5577,0 0.8487,-0.435 0.8487,-0.886 0,-0.486 -0.3467,-0.871 -0.5244,-1.072 l -1.3448,-1.328 c -0.0556,-0.05 -0.0556,-0.061 -0.0556,-0.217 H -0.168 L 0,0"
                 style="fill:#000000;fill-opacity:1;fill-rule:nonzero;stroke:none"
                 id="path2265" /></g><g
               id="g2267"
               transform="translate(26.722,11.498)"><path
                 d="M 0,0 H -17.008"
                 style="fill:none;stroke:#000000;stroke-width:0.319;stroke-linecap:butt;stroke-linejoin:miter;stroke-miterlimit:10;stroke-dasharray:none;stroke-opacity:1"
                 id="path2269" /></g><g
               id="g2271"
               transform="translate(133.617,7.5)"><path
                 d="M 0,0 H 0.709 C 0.805,0 0.901,-0.008 0.996,-0.008 H 2.065 V 0.51 h -4.846 v -0.518 h 1.067 c 0.096,0 0.192,0.008 0.287,0.008 h 0.718 V -4.974 H 0 V 0"
                 style="fill:#000000;fill-opacity:1;fill-rule:nonzero;stroke:none"
                 id="path2273" /></g><g
               id="g2275"
               transform="translate(138.491,4.83)"><path
                 d="m 0,0 c 0,0.813 -0.581,1.371 -1.314,1.371 -0.519,0 -0.877,-0.128 -1.251,-0.343 l 0.048,-0.526 c 0.414,0.295 0.812,0.398 1.203,0.398 0.374,0 0.693,-0.318 0.693,-0.908 v -0.343 c -1.195,-0.016 -2.208,-0.351 -2.208,-1.052 0,-0.343 0.216,-0.988 0.909,-0.988 0.112,0 0.861,0.016 1.323,0.374 V -2.304 H 0 Z m -0.621,-1.251 c 0,-0.152 0,-0.351 -0.271,-0.502 -0.231,-0.144 -0.534,-0.152 -0.621,-0.152 -0.383,0 -0.742,0.183 -0.742,0.518 0,0.558 1.291,0.614 1.634,0.63 v -0.494"
                 style="fill:#000000;fill-opacity:1;fill-rule:nonzero;stroke:none"
                 id="path2277" /></g><g
               id="g2279"
               transform="translate(141.876,5.946)"><path
                 d="m 0,0 c -0.415,0.191 -0.741,0.255 -1.147,0.255 -0.2,0 -1.324,0 -1.324,-1.044 0,-0.391 0.231,-0.646 0.43,-0.797 0.248,-0.176 0.423,-0.208 0.861,-0.295 0.287,-0.056 0.749,-0.152 0.749,-0.574 0,-0.55 -0.63,-0.55 -0.749,-0.55 -0.645,0 -1.092,0.295 -1.235,0.39 l -0.096,-0.541 c 0.255,-0.128 0.694,-0.351 1.339,-0.351 0.144,0 0.582,0 0.925,0.255 0.247,0.191 0.383,0.51 0.383,0.852 0,0.439 -0.295,0.71 -0.312,0.734 -0.31,0.279 -0.525,0.327 -0.924,0.398 -0.438,0.088 -0.805,0.168 -0.805,0.558 0,0.494 0.574,0.494 0.677,0.494 0.255,0 0.678,-0.031 1.132,-0.302 L 0,0"
                 style="fill:#000000;fill-opacity:1;fill-rule:nonzero;stroke:none"
                 id="path2281" /></g><g
               id="g2283"
               transform="translate(144.437,4.694)"><path
                 d="M 0,0 1.338,1.371 H 0.622 l -1.619,-1.657 v 3.65 h -0.574 v -5.532 h 0.55 v 1.124 l 0.638,0.662 1.244,-1.786 H 1.514 L 0,0"
                 style="fill:#000000;fill-opacity:1;fill-rule:nonzero;stroke:none"
                 id="path2285" /></g><g
               id="g2287"
               transform="translate(147.613,3.195)"><path
                 d="m 0,0 c 0.436,0 0.748,-0.301 0.748,-0.899 0,-0.692 -0.402,-0.898 -0.725,-0.898 -0.224,0 -0.714,0.061 -0.948,0.391 0.261,0.011 0.323,0.195 0.323,0.312 0,0.179 -0.134,0.307 -0.307,0.307 -0.156,0 -0.312,-0.095 -0.312,-0.324 0,-0.524 0.58,-0.864 1.254,-0.864 0.777,0 1.312,0.519 1.312,1.076 0,0.435 -0.357,0.87 -0.971,0.999 0.586,0.212 0.798,0.63 0.798,0.971 0,0.44 -0.508,0.77 -1.127,0.77 -0.619,0 -1.094,-0.302 -1.094,-0.748 0,-0.189 0.124,-0.295 0.29,-0.295 0.173,0 0.286,0.128 0.286,0.284 0,0.162 -0.113,0.279 -0.286,0.29 0.196,0.245 0.581,0.307 0.788,0.307 0.251,0 0.602,-0.123 0.602,-0.608 C 0.631,0.837 0.553,0.58 0.408,0.407 0.224,0.195 0.068,0.184 -0.212,0.167 -0.351,0.156 -0.362,0.156 -0.39,0.15 -0.401,0.15 -0.446,0.139 -0.446,0.078 -0.446,0 -0.395,0 -0.3,0 H 0"
                 style="fill:#000000;fill-opacity:1;fill-rule:nonzero;stroke:none"
                 id="path2289" /></g><g
               id="g2291"
               transform="translate(163.316,10.633)"><path
                 d="m 0,0 c 0.016,0.04 0.04,0.096 0.04,0.112 0,0.007 0,0.087 -0.095,0.087 -0.073,0 -0.088,-0.047 -0.104,-0.095 -0.518,-1.18 -0.813,-1.714 -2.176,-1.714 h -1.164 c -0.111,0 -0.127,0 -0.174,0.008 -0.08,0.008 -0.105,0.016 -0.105,0.08 0,0.024 0,0.04 0.04,0.183 l 0.542,2.176 h 0.789 c 0.678,0 0.678,-0.167 0.678,-0.367 0,-0.056 0,-0.151 -0.056,-0.39 -0.016,-0.04 -0.024,-0.064 -0.024,-0.088 0,-0.04 0.032,-0.087 0.103,-0.087 0.065,0 0.088,0.039 0.12,0.159 l 0.455,1.865 c 0,0.048 -0.04,0.087 -0.096,0.087 -0.071,0 -0.088,-0.047 -0.111,-0.143 C -1.506,1.267 -1.649,1.084 -2.382,1.084 h -0.749 l 0.477,1.921 c 0.072,0.279 0.08,0.311 0.431,0.311 h 1.124 c 0.971,0 1.211,-0.232 1.211,-0.885 0,-0.191 0,-0.207 -0.032,-0.422 0,-0.048 -0.008,-0.104 -0.008,-0.144 0,-0.04 0.024,-0.096 0.095,-0.096 0.088,0 0.096,0.048 0.113,0.2 L 0.439,3.347 C 0.462,3.563 0.423,3.563 0.223,3.563 h -4.024 c -0.16,0 -0.24,0 -0.24,-0.159 0,-0.088 0.073,-0.088 0.224,-0.088 0.295,0 0.518,0 0.518,-0.144 0,-0.032 0,-0.048 -0.04,-0.191 l -1.052,-4.216 c -0.08,-0.311 -0.096,-0.375 -0.726,-0.375 -0.135,0 -0.222,0 -0.222,-0.151 0,-0.096 0.071,-0.096 0.222,-0.096 h 4.137 c 0.184,0 0.191,0.008 0.247,0.136 L 0,0"
                 style="fill:#000000;fill-opacity:1;fill-rule:nonzero;stroke:none"
                 id="path2293" /></g><g
               id="g2295"
               transform="translate(165.08,9.444)"><path
                 d="m 0,0 c 0.435,0 0.747,-0.301 0.747,-0.898 0,-0.692 -0.401,-0.898 -0.724,-0.898 -0.224,0 -0.715,0.061 -0.95,0.391 0.263,0.01 0.325,0.195 0.325,0.312 0,0.178 -0.134,0.307 -0.307,0.307 -0.156,0 -0.313,-0.095 -0.313,-0.324 0,-0.524 0.58,-0.865 1.255,-0.865 0.776,0 1.312,0.519 1.312,1.077 0,0.435 -0.358,0.87 -0.971,0.998 0.585,0.213 0.797,0.631 0.797,0.972 0,0.44 -0.507,0.77 -1.127,0.77 -0.619,0 -1.093,-0.302 -1.093,-0.748 0,-0.19 0.122,-0.296 0.29,-0.296 0.173,0 0.284,0.129 0.284,0.285 0,0.161 -0.111,0.279 -0.284,0.29 0.196,0.245 0.58,0.306 0.786,0.306 C 0.278,1.679 0.63,1.557 0.63,1.072 0.63,0.837 0.552,0.58 0.407,0.408 0.223,0.196 0.066,0.184 -0.212,0.168 -0.351,0.157 -0.363,0.157 -0.391,0.151 -0.402,0.151 -0.446,0.139 -0.446,0.078 -0.446,0 -0.396,0 -0.302,0 H 0"
                 style="fill:#000000;fill-opacity:1;fill-rule:nonzero;stroke:none"
                 id="path2297" /></g><g
               id="g2299"
               transform="translate(140.109,11.498)"><path
                 d="M 0,0 H 17.008"
                 style="fill:none;stroke:#000000;stroke-width:0.319;stroke-linecap:butt;stroke-linejoin:miter;stroke-miterlimit:10;stroke-dasharray:none;stroke-opacity:1"
                 id="path2301" /></g></g></g></g></g></g></svg>
